<svg width="254" height="81" viewBox="0 0 254 81" fill="none" xmlns="http://www.w3.org/2000/svg">
<path d="M26.452 41.048H13.876L11.86 47H3.268L15.46 13.304H24.964L37.156 47H28.468L26.452 41.048ZM24.34 34.712L20.164 22.376L16.036 34.712H24.34ZM48.1146 24.008C48.8826 22.76 49.9866 21.752 51.4266 20.984C52.8666 20.216 54.5146 19.832 56.3706 19.832C58.5786 19.832 60.5786 20.392 62.3706 21.512C64.1626 22.632 65.5706 24.232 66.5946 26.312C67.6506 28.392 68.1786 30.808 68.1786 33.56C68.1786 36.312 67.6506 38.744 66.5946 40.856C65.5706 42.936 64.1626 44.552 62.3706 45.704C60.5786 46.824 58.5786 47.384 56.3706 47.384C54.4826 47.384 52.8346 47.016 51.4266 46.28C50.0186 45.512 48.9146 44.504 48.1146 43.256V47H39.9066V11.48H48.1146V24.008ZM59.8266 33.56C59.8266 31.512 59.2506 29.912 58.0986 28.76C56.9786 27.576 55.5866 26.984 53.9226 26.984C52.2906 26.984 50.8986 27.576 49.7466 28.76C48.6266 29.944 48.0666 31.56 48.0666 33.608C48.0666 35.656 48.6266 37.272 49.7466 38.456C50.8986 39.64 52.2906 40.232 53.9226 40.232C55.5546 40.232 56.9466 39.64 58.0986 38.456C59.2506 37.24 59.8266 35.608 59.8266 33.56ZM83.7168 47.384C81.0928 47.384 78.7248 46.824 76.6128 45.704C74.5328 44.584 72.8848 42.984 71.6688 40.904C70.4848 38.824 69.8928 36.392 69.8928 33.608C69.8928 30.856 70.5008 28.44 71.7168 26.36C72.9328 24.248 74.5968 22.632 76.7088 21.512C78.8208 20.392 81.1888 19.832 83.8128 19.832C86.4368 19.832 88.8048 20.392 90.9168 21.512C93.0288 22.632 94.6928 24.248 95.9088 26.36C97.1248 28.44 97.7328 30.856 97.7328 33.608C97.7328 36.36 97.1088 38.792 95.8608 40.904C94.6448 42.984 92.9648 44.584 90.8208 45.704C88.7088 46.824 86.3408 47.384 83.7168 47.384ZM83.7168 40.28C85.2848 40.28 86.6128 39.704 87.7008 38.552C88.8208 37.4 89.3808 35.752 89.3808 33.608C89.3808 31.464 88.8368 29.816 87.7488 28.664C86.6928 27.512 85.3808 26.936 83.8128 26.936C82.2128 26.936 80.8848 27.512 79.8288 28.664C78.7728 29.784 78.2448 31.432 78.2448 33.608C78.2448 35.752 78.7568 37.4 79.7808 38.552C80.8368 39.704 82.1488 40.28 83.7168 40.28ZM127.575 20.216V47H119.367V43.352C118.535 44.536 117.399 45.496 115.959 46.232C114.551 46.936 112.983 47.288 111.255 47.288C109.207 47.288 107.399 46.84 105.831 45.944C104.263 45.016 103.047 43.688 102.183 41.96C101.319 40.232 100.887 38.2 100.887 35.864V20.216H109.047V34.76C109.047 36.552 109.511 37.944 110.439 38.936C111.367 39.928 112.615 40.424 114.183 40.424C115.783 40.424 117.047 39.928 117.975 38.936C118.903 37.944 119.367 36.552 119.367 34.76V20.216H127.575ZM147.439 40.04V47H143.263C140.287 47 137.967 46.28 136.303 44.84C134.639 43.368 133.807 40.984 133.807 37.688V27.032H130.543V20.216H133.807V13.688H142.015V20.216H147.391V27.032H142.015V37.784C142.015 38.584 142.207 39.16 142.591 39.512C142.975 39.864 143.615 40.04 144.511 40.04H147.439ZM181.239 41.048H168.663L166.647 47H158.055L170.247 13.304H179.751L191.943 47H183.255L181.239 41.048ZM179.127 34.712L174.951 22.376L170.823 34.712H179.127ZM215.093 29.72C217.046 30.136 218.614 31.112 219.798 32.648C220.982 34.152 221.574 35.88 221.574 37.832C221.574 40.648 220.582 42.888 218.597 44.552C216.645 46.184 213.909 47 210.39 47H194.693V13.304H209.861C213.285 13.304 215.957 14.088 217.877 15.656C219.829 17.224 220.805 19.352 220.805 22.04C220.805 24.024 220.277 25.672 219.221 26.984C218.197 28.296 216.821 29.208 215.093 29.72ZM202.901 26.936H208.278C209.622 26.936 210.645 26.648 211.349 26.072C212.085 25.464 212.453 24.584 212.453 23.432C212.453 22.28 212.085 21.4 211.349 20.792C210.645 20.184 209.622 19.88 208.278 19.88H202.901V26.936ZM208.95 40.376C210.325 40.376 211.381 40.072 212.117 39.464C212.885 38.824 213.27 37.912 213.27 36.728C213.27 35.544 212.87 34.616 212.069 33.944C211.301 33.272 210.229 32.936 208.853 32.936H202.901V40.376H208.95ZM234.11 40.28H248.606V47H224.798V40.76L239.198 20.024H224.798V13.304H248.606V19.544L234.11 40.28Z" fill="#3F59D9"/>
<path d="M2.5 76.2842C34.8425 72.6808 67.9404 72.108 100.6 72.0056C151.157 71.847 201.191 75.1132 251.5 78" stroke="#D8F75C" stroke-width="5" stroke-linecap="round"/>
</svg>
