<svg width="439" height="96" viewBox="0 0 439 96" fill="none" xmlns="http://www.w3.org/2000/svg">
<path d="M26.4986 37.496V42.92H17.5706V71H10.8506V42.92H1.92257V37.496H26.4986ZM45.4177 44.024C47.4337 44.024 49.2257 44.472 50.7937 45.368C52.3617 46.232 53.5777 47.528 54.4417 49.256C55.3377 50.952 55.7857 53 55.7857 55.4V71H49.0657V56.312C49.0657 54.2 48.5377 52.584 47.4817 51.464C46.4257 50.312 44.9857 49.736 43.1617 49.736C41.3057 49.736 39.8337 50.312 38.7457 51.464C37.6897 52.584 37.1617 54.2 37.1617 56.312V71H30.4417V35.48H37.1617V47.72C38.0257 46.568 39.1777 45.672 40.6177 45.032C42.0577 44.36 43.6577 44.024 45.4177 44.024ZM85.9361 57.128C85.9361 58.088 85.8721 58.952 85.7441 59.72H66.3041C66.4641 61.64 67.1361 63.144 68.3201 64.232C69.5041 65.32 70.9601 65.864 72.6881 65.864C75.1841 65.864 76.9601 64.792 78.0161 62.648H85.2641C84.4961 65.208 83.0241 67.32 80.8481 68.984C78.6721 70.616 76.0001 71.432 72.8321 71.432C70.2721 71.432 67.9681 70.872 65.9201 69.752C63.9041 68.6 62.3201 66.984 61.1681 64.904C60.0481 62.824 59.4881 60.424 59.4881 57.704C59.4881 54.952 60.0481 52.536 61.1681 50.456C62.2881 48.376 63.8561 46.776 65.8721 45.656C67.8881 44.536 70.2081 43.976 72.8321 43.976C75.3601 43.976 77.6161 44.52 79.6001 45.608C81.6161 46.696 83.1681 48.248 84.2561 50.264C85.3761 52.248 85.9361 54.536 85.9361 57.128ZM78.9761 55.208C78.9441 53.48 78.3201 52.104 77.1041 51.08C75.8881 50.024 74.4001 49.496 72.6401 49.496C70.9761 49.496 69.5681 50.008 68.4161 51.032C67.2961 52.024 66.6081 53.416 66.3521 55.208H78.9761ZM120.903 64.616H107.559L105.351 71H98.2946L110.343 37.448H118.167L130.215 71H123.111L120.903 64.616ZM119.079 59.24L114.231 45.224L109.383 59.24H119.079ZM152.766 53.816C154.654 54.168 156.206 55.112 157.422 56.648C158.638 58.184 159.246 59.944 159.246 61.928C159.246 63.72 158.798 65.304 157.902 66.68C157.038 68.024 155.774 69.08 154.11 69.848C152.446 70.616 150.478 71 148.206 71H133.758V37.496H147.582C149.854 37.496 151.806 37.864 153.438 38.6C155.102 39.336 156.35 40.36 157.182 41.672C158.046 42.984 158.478 44.472 158.478 46.136C158.478 48.088 157.95 49.72 156.894 51.032C155.87 52.344 154.494 53.272 152.766 53.816ZM140.478 51.32H146.622C148.222 51.32 149.454 50.968 150.318 50.264C151.182 49.528 151.614 48.488 151.614 47.144C151.614 45.8 151.182 44.76 150.318 44.024C149.454 43.288 148.222 42.92 146.622 42.92H140.478V51.32ZM147.246 65.528C148.878 65.528 150.142 65.144 151.038 64.376C151.966 63.608 152.43 62.52 152.43 61.112C152.43 59.672 151.95 58.552 150.99 57.752C150.03 56.92 148.734 56.504 147.102 56.504H140.478V65.528H147.246ZM170.506 65.336H185.578V71H162.73V65.816L177.706 43.16H162.73V37.496H185.578V42.68L170.506 65.336ZM212.527 37.496C216.047 37.496 219.135 38.184 221.791 39.56C224.479 40.936 226.543 42.904 227.983 45.464C229.455 47.992 230.191 50.936 230.191 54.296C230.191 57.656 229.455 60.6 227.983 63.128C226.543 65.624 224.479 67.56 221.791 68.936C219.135 70.312 216.047 71 212.527 71H200.815V37.496H212.527ZM212.287 65.288C215.807 65.288 218.527 64.328 220.447 62.408C222.367 60.488 223.327 57.784 223.327 54.296C223.327 50.808 222.367 48.088 220.447 46.136C218.527 44.152 215.807 43.16 212.287 43.16H207.535V65.288H212.287ZM237.67 41.24C236.486 41.24 235.494 40.872 234.694 40.136C233.926 39.368 233.542 38.424 233.542 37.304C233.542 36.184 233.926 35.256 234.694 34.52C235.494 33.752 236.486 33.368 237.67 33.368C238.854 33.368 239.83 33.752 240.598 34.52C241.398 35.256 241.798 36.184 241.798 37.304C241.798 38.424 241.398 39.368 240.598 40.136C239.83 40.872 238.854 41.24 237.67 41.24ZM240.982 44.408V71H234.262V44.408H240.982ZM258.853 49.928H254.197V71H247.381V49.928H244.357V44.408H247.381V43.064C247.381 39.8 248.309 37.4 250.165 35.864C252.021 34.328 254.821 33.608 258.565 33.704V39.368C256.933 39.336 255.797 39.608 255.157 40.184C254.517 40.76 254.197 41.8 254.197 43.304V44.408H258.853V49.928ZM274.44 49.928H269.784V71H262.968V49.928H259.944V44.408H262.968V43.064C262.968 39.8 263.896 37.4 265.752 35.864C267.608 34.328 270.408 33.608 274.152 33.704V39.368C272.52 39.336 271.384 39.608 270.744 40.184C270.104 40.76 269.784 41.8 269.784 43.304V44.408H274.44V49.928ZM302.555 57.128C302.555 58.088 302.491 58.952 302.363 59.72H282.923C283.083 61.64 283.755 63.144 284.939 64.232C286.123 65.32 287.579 65.864 289.307 65.864C291.803 65.864 293.579 64.792 294.635 62.648H301.883C301.115 65.208 299.643 67.32 297.467 68.984C295.291 70.616 292.619 71.432 289.451 71.432C286.891 71.432 284.587 70.872 282.539 69.752C280.523 68.6 278.939 66.984 277.787 64.904C276.667 62.824 276.107 60.424 276.107 57.704C276.107 54.952 276.667 52.536 277.787 50.456C278.907 48.376 280.475 46.776 282.491 45.656C284.507 44.536 286.827 43.976 289.451 43.976C291.979 43.976 294.235 44.52 296.219 45.608C298.235 46.696 299.787 48.248 300.875 50.264C301.995 52.248 302.555 54.536 302.555 57.128ZM295.595 55.208C295.563 53.48 294.939 52.104 293.723 51.08C292.507 50.024 291.019 49.496 289.259 49.496C287.595 49.496 286.187 50.008 285.035 51.032C283.915 52.024 283.227 53.416 282.971 55.208H295.595ZM313.22 48.536C314.084 47.128 315.204 46.024 316.58 45.224C317.988 44.424 319.588 44.024 321.38 44.024V51.08H319.604C317.492 51.08 315.892 51.576 314.804 52.568C313.748 53.56 313.22 55.288 313.22 57.752V71H306.5V44.408H313.22V48.536ZM349.666 57.128C349.666 58.088 349.602 58.952 349.474 59.72H330.034C330.194 61.64 330.866 63.144 332.05 64.232C333.234 65.32 334.69 65.864 336.418 65.864C338.914 65.864 340.69 64.792 341.746 62.648H348.994C348.226 65.208 346.754 67.32 344.578 68.984C342.402 70.616 339.73 71.432 336.562 71.432C334.002 71.432 331.698 70.872 329.65 69.752C327.634 68.6 326.05 66.984 324.898 64.904C323.778 62.824 323.218 60.424 323.218 57.704C323.218 54.952 323.778 52.536 324.898 50.456C326.018 48.376 327.586 46.776 329.602 45.656C331.618 44.536 333.938 43.976 336.562 43.976C339.09 43.976 341.346 44.52 343.33 45.608C345.346 46.696 346.898 48.248 347.986 50.264C349.106 52.248 349.666 54.536 349.666 57.128ZM342.706 55.208C342.674 53.48 342.05 52.104 340.834 51.08C339.618 50.024 338.13 49.496 336.37 49.496C334.706 49.496 333.298 50.008 332.146 51.032C331.026 52.024 330.338 53.416 330.082 55.208H342.706ZM368.347 44.024C371.515 44.024 374.075 45.032 376.027 47.048C377.979 49.032 378.955 51.816 378.955 55.4V71H372.235V56.312C372.235 54.2 371.707 52.584 370.651 51.464C369.595 50.312 368.155 49.736 366.331 49.736C364.475 49.736 363.003 50.312 361.915 51.464C360.859 52.584 360.331 54.2 360.331 56.312V71H353.611V44.408H360.331V47.72C361.227 46.568 362.363 45.672 363.739 45.032C365.147 44.36 366.683 44.024 368.347 44.024ZM382.657 57.704C382.657 54.952 383.217 52.552 384.337 50.504C385.457 48.424 387.009 46.824 388.993 45.704C390.977 44.552 393.249 43.976 395.809 43.976C399.105 43.976 401.825 44.808 403.969 46.472C406.145 48.104 407.601 50.408 408.337 53.384H401.089C400.705 52.232 400.049 51.336 399.121 50.696C398.225 50.024 397.105 49.688 395.761 49.688C393.841 49.688 392.321 50.392 391.201 51.8C390.081 53.176 389.521 55.144 389.521 57.704C389.521 60.232 390.081 62.2 391.201 63.608C392.321 64.984 393.841 65.672 395.761 65.672C398.481 65.672 400.257 64.456 401.089 62.024H408.337C407.601 64.904 406.145 67.192 403.969 68.888C401.793 70.584 399.073 71.432 395.809 71.432C393.249 71.432 390.977 70.872 388.993 69.752C387.009 68.6 385.457 67 384.337 64.952C383.217 62.872 382.657 60.456 382.657 57.704ZM437.02 57.128C437.02 58.088 436.956 58.952 436.828 59.72H417.388C417.548 61.64 418.22 63.144 419.404 64.232C420.588 65.32 422.044 65.864 423.772 65.864C426.268 65.864 428.044 64.792 429.1 62.648H436.348C435.58 65.208 434.108 67.32 431.932 68.984C429.756 70.616 427.084 71.432 423.916 71.432C421.356 71.432 419.052 70.872 417.004 69.752C414.988 68.6 413.404 66.984 412.252 64.904C411.132 62.824 410.572 60.424 410.572 57.704C410.572 54.952 411.132 52.536 412.252 50.456C413.372 48.376 414.94 46.776 416.956 45.656C418.972 44.536 421.292 43.976 423.916 43.976C426.444 43.976 428.7 44.52 430.684 45.608C432.7 46.696 434.252 48.248 435.34 50.264C436.46 52.248 437.02 54.536 437.02 57.128ZM430.06 55.208C430.028 53.48 429.404 52.104 428.188 51.08C426.972 50.024 425.484 49.496 423.724 49.496C422.06 49.496 420.652 50.008 419.5 51.032C418.38 52.024 417.692 53.416 417.436 55.208H430.06Z" fill="#F9F9F9"/>
<path d="M2.5 92.2842C58.8721 88.6808 116.561 88.108 173.485 88.0056C261.606 87.847 348.814 91.1132 436.5 94" stroke="#D6F26B" stroke-width="3" stroke-linecap="round"/>
</svg>
