<svg width="114" height="28" viewBox="0 0 114 28" fill="none" xmlns="http://www.w3.org/2000/svg">
<path d="M108.144 13.5167C110.758 11.4656 111.907 9.36194 111.698 6.67978C111.542 2.89321 108.405 -0.0518978 104.694 0.000693453H94.3449V22.9305H98.4742V13.5167H103.388L109.189 22.9305H113.998L108.144 13.5167ZM107.726 6.73238C107.778 8.20493 106.681 9.46712 105.217 9.51971C105.06 9.51971 104.903 9.51971 104.694 9.51971H98.4742V4.05022H104.694C106.21 3.89245 107.517 4.94427 107.726 6.46942C107.726 6.5746 107.726 6.62719 107.726 6.73238ZM63.0354 14.4107L68.3146 22.9831H73.228L65.7011 10.8345L63.0354 14.4107ZM71.7121 0.0532847H66.4852L55.7177 14.5159V0.0532847H51.6406V20.932C51.6406 21.9313 52.3201 22.7727 53.261 22.9305C53.9928 23.0357 54.7768 22.7727 55.2472 22.1942L71.7121 0.0532847ZM80.8593 13.5167H88.9611V9.51971H80.8593V13.5167Z" fill="white"/>
<path d="M91.1058 0.0532227H75.0068V20.932C74.9546 22.0364 75.8431 22.9304 76.9408 22.983H76.9931H91.1581V18.9861H79.2407V4.05016H91.1581V0.0532227H91.1058ZM43.3837 0.0532227V14.5158L32.6162 0.0532227H27.337V22.9304H31.4663V5.52272L43.8542 22.1416C44.3246 22.7201 45.0564 23.0356 45.8404 22.8778C46.7813 22.7201 47.4608 21.826 47.4608 20.8794V0.0532227H43.3837ZM10.6107 1.31541L0 22.983H4.59972L12.5447 6.73232L20.4897 22.983H25.0894L14.5832 1.368C14.3741 0.999866 14.1128 0.631727 13.7469 0.421362C13.381 0.210996 12.9629 0.0532227 12.5447 0.0532227C12.1265 0.0532227 11.7607 0.158405 11.3948 0.36877C11.0289 0.579135 10.7675 0.894683 10.6107 1.31541Z" fill="white"/>
<path d="M16.3079 19.7223H13.5376L14.0603 13.832L8.10156 21.5104H10.8719L10.3492 27.4006L16.2034 19.6171L16.3079 19.7223Z" fill="white"/>
</svg>
