<svg width="167" height="20" viewBox="0 0 167 20" fill="none" xmlns="http://www.w3.org/2000/svg">
<path d="M97.7749 0.00752485C96.0043 0.00752485 94.4646 1.00081 93.687 2.31765C92.9095 3.6345 90.7155 7.36683 89.9303 8.68369C89.1373 10.0081 90.1766 11.4604 91.5623 11.4604H104.596C104.596 11.4604 102.633 14.7863 102.256 15.4185C101.878 16.0505 101.262 16.3816 100.593 16.3816H98.5679C97.8981 16.3816 97.6132 15.6667 97.8596 15.2378C98.106 14.8089 98.6376 13.9209 98.6376 13.9209H86.8201C86.8201 13.9209 85.904 15.4711 85.1034 16.8256C84.3027 18.1801 85.3728 19.6474 86.72 19.6474H108.807C110.561 19.6474 112.124 18.7067 112.963 17.2771C113.803 15.8474 115.782 12.4762 116.636 11.0465C117.49 9.61676 116.412 8.19456 115.05 8.19456H102.017C102.017 8.19456 104.15 4.58264 104.427 4.1161C104.704 3.64955 105.334 3.25826 106.036 3.25826H108.067C108.729 3.25826 109.006 3.9656 108.799 4.33431C108.591 4.70303 107.983 5.71889 107.983 5.71889H119.785C119.785 5.71889 120.901 3.83015 121.555 2.724C122.209 1.61032 121.394 0 119.885 0H97.7595L97.7749 0.00752485Z" fill="white"/>
<path d="M88.4208 0.00752485H66.3572C64.756 0.00752485 63.0932 0.850308 62.2386 2.29508C61.3764 3.73985 54.3786 15.599 53.6164 16.8857C52.8543 18.1725 53.9013 19.6474 55.2562 19.6474H77.3583C79.1365 19.6474 80.6994 18.6617 81.4769 17.3524C82.2545 16.043 89.3446 4.0258 90.0837 2.77667C90.8227 1.52002 89.8758 0 88.4132 0L88.4208 0.00752485ZM77.3043 4.43214C76.9887 4.96641 71.1149 14.9067 70.7915 15.4635C70.4682 16.0205 69.8293 16.3967 69.1518 16.3967H67.0963C66.4419 16.3967 66.134 15.6893 66.3881 15.2604C66.6421 14.8315 72.5699 4.79333 72.9317 4.18382C73.2935 3.56678 73.9787 3.28084 74.5638 3.28084H76.6193C77.212 3.28084 77.62 3.91292 77.2967 4.43966L77.3043 4.43214Z" fill="white"/>
<path d="M56.9988 0.00732422H32.0715L22.3946 16.3889H0V19.6547C0 19.6547 44.2426 19.6547 45.9132 19.6547C47.5837 19.6547 49.1696 18.8044 50.0549 17.322C50.9325 15.8321 52.3182 13.4844 52.911 12.4685C53.5038 11.4602 52.8802 10.1659 51.7716 9.83475C53.3883 9.83475 55.028 8.89417 55.8286 7.54723C56.6293 6.20028 57.8995 4.0256 58.6231 2.79904C59.3545 1.57249 58.4615 0.0148491 56.9988 0.0148491V0.00732422ZM43.7653 12.6265C43.4727 13.1307 42.472 14.8163 42.0793 15.4859C41.6867 16.1481 41.0247 16.404 40.455 16.404C39.8853 16.404 34.1962 16.404 34.1962 16.404L37.1062 11.4752H43.0724C43.696 11.4752 44.0578 12.1223 43.7576 12.634L43.7653 12.6265ZM48.5998 4.42441C48.3074 4.9361 47.3066 6.61414 46.9139 7.27633C46.5214 7.94604 45.8593 8.19436 45.2896 8.19436H39.0308L41.9408 3.26559H47.907C48.5306 3.26559 48.8847 3.91272 48.5922 4.42441H48.5998Z" fill="white"/>
<path d="M126.492 0.00732422L114.891 19.6547H143.013L144.937 16.3889H128.617L131.527 11.4676H147.848L149.78 8.19436H133.459L136.369 3.26559H167.001V0.00732422H126.492Z" fill="white"/>
</svg>
