<svg width="596" height="96" viewBox="0 0 596 96" fill="none" xmlns="http://www.w3.org/2000/svg">
<path d="M44.7981 47.576C44.0301 46.168 42.9741 45.096 41.6301 44.36C40.2861 43.624 38.7181 43.256 36.9261 43.256C34.9421 43.256 33.1821 43.704 31.6461 44.6C30.1101 45.496 28.9101 46.776 28.0461 48.44C27.1821 50.104 26.7501 52.024 26.7501 54.2C26.7501 56.44 27.1821 58.392 28.0461 60.056C28.9421 61.72 30.1741 63 31.7421 63.896C33.3101 64.792 35.1341 65.24 37.2141 65.24C39.7741 65.24 41.8701 64.568 43.5021 63.224C45.1341 61.848 46.2061 59.944 46.7181 57.512H35.1981V52.376H53.3421V58.232C52.8941 60.568 51.9341 62.728 50.4621 64.712C48.9901 66.696 47.0861 68.296 44.7501 69.512C42.4461 70.696 39.8541 71.288 36.9741 71.288C33.7421 71.288 30.8141 70.568 28.1901 69.128C25.5981 67.656 23.5501 65.624 22.0461 63.032C20.5741 60.44 19.8381 57.496 19.8381 54.2C19.8381 50.904 20.5741 47.96 22.0461 45.368C23.5501 42.744 25.5981 40.712 28.1901 39.272C30.8141 37.8 33.7261 37.064 36.9261 37.064C40.7021 37.064 43.9821 37.992 46.7661 39.848C49.5501 41.672 51.4701 44.248 52.5261 47.576H44.7981ZM69.1619 71.432C66.6019 71.432 64.2979 70.872 62.2499 69.752C60.2019 68.6 58.5859 66.984 57.4019 64.904C56.2499 62.824 55.6739 60.424 55.6739 57.704C55.6739 54.984 56.2659 52.584 57.4499 50.504C58.6659 48.424 60.3139 46.824 62.3939 45.704C64.4739 44.552 66.7939 43.976 69.3539 43.976C71.9139 43.976 74.2339 44.552 76.3139 45.704C78.3939 46.824 80.0259 48.424 81.2099 50.504C82.4259 52.584 83.0339 54.984 83.0339 57.704C83.0339 60.424 82.4099 62.824 81.1619 64.904C79.9459 66.984 78.2819 68.6 76.1699 69.752C74.0899 70.872 71.7539 71.432 69.1619 71.432ZM69.1619 65.576C70.3779 65.576 71.5139 65.288 72.5699 64.712C73.6579 64.104 74.5219 63.208 75.1619 62.024C75.8019 60.84 76.1219 59.4 76.1219 57.704C76.1219 55.176 75.4499 53.24 74.1059 51.896C72.7939 50.52 71.1779 49.832 69.2579 49.832C67.3379 49.832 65.7219 50.52 64.4099 51.896C63.1299 53.24 62.4899 55.176 62.4899 57.704C62.4899 60.232 63.1139 62.184 64.3619 63.56C65.6419 64.904 67.2419 65.576 69.1619 65.576ZM94.8272 49.928V62.792C94.8272 63.688 95.0352 64.344 95.4512 64.76C95.8992 65.144 96.6352 65.336 97.6592 65.336H100.779V71H96.5552C90.8912 71 88.0592 68.248 88.0592 62.744V49.928H84.8912V44.408H88.0592V37.832H94.8272V44.408H100.779V49.928H94.8272ZM126.698 71.336C124.362 71.336 122.25 70.936 120.362 70.136C118.506 69.336 117.034 68.184 115.946 66.68C114.858 65.176 114.298 63.4 114.266 61.352H121.466C121.562 62.728 122.042 63.816 122.906 64.616C123.802 65.416 125.018 65.816 126.554 65.816C128.122 65.816 129.354 65.448 130.25 64.712C131.146 63.944 131.594 62.952 131.594 61.736C131.594 60.744 131.29 59.928 130.682 59.288C130.074 58.648 129.306 58.152 128.378 57.8C127.482 57.416 126.234 57 124.634 56.552C122.458 55.912 120.682 55.288 119.306 54.68C117.962 54.04 116.794 53.096 115.802 51.848C114.842 50.568 114.362 48.872 114.362 46.76C114.362 44.776 114.858 43.048 115.85 41.576C116.842 40.104 118.234 38.984 120.026 38.216C121.818 37.416 123.866 37.016 126.17 37.016C129.626 37.016 132.426 37.864 134.57 39.56C136.746 41.224 137.946 43.56 138.17 46.568H130.778C130.714 45.416 130.218 44.472 129.29 43.736C128.394 42.968 127.194 42.584 125.69 42.584C124.378 42.584 123.322 42.92 122.522 43.592C121.754 44.264 121.37 45.24 121.37 46.52C121.37 47.416 121.658 48.168 122.234 48.776C122.842 49.352 123.578 49.832 124.442 50.216C125.338 50.568 126.586 50.984 128.186 51.464C130.362 52.104 132.138 52.744 133.514 53.384C134.89 54.024 136.074 54.984 137.066 56.264C138.058 57.544 138.554 59.224 138.554 61.304C138.554 63.096 138.09 64.76 137.162 66.296C136.234 67.832 134.874 69.064 133.082 69.992C131.29 70.888 129.162 71.336 126.698 71.336ZM155.228 71.432C152.668 71.432 150.364 70.872 148.316 69.752C146.268 68.6 144.652 66.984 143.468 64.904C142.316 62.824 141.74 60.424 141.74 57.704C141.74 54.984 142.332 52.584 143.516 50.504C144.732 48.424 146.38 46.824 148.46 45.704C150.54 44.552 152.86 43.976 155.42 43.976C157.98 43.976 160.3 44.552 162.38 45.704C164.46 46.824 166.092 48.424 167.276 50.504C168.492 52.584 169.1 54.984 169.1 57.704C169.1 60.424 168.476 62.824 167.228 64.904C166.012 66.984 164.348 68.6 162.236 69.752C160.156 70.872 157.82 71.432 155.228 71.432ZM155.228 65.576C156.444 65.576 157.58 65.288 158.636 64.712C159.724 64.104 160.588 63.208 161.228 62.024C161.868 60.84 162.188 59.4 162.188 57.704C162.188 55.176 161.516 53.24 160.172 51.896C158.86 50.52 157.244 49.832 155.324 49.832C153.404 49.832 151.788 50.52 150.476 51.896C149.196 53.24 148.556 55.176 148.556 57.704C148.556 60.232 149.18 62.184 150.428 63.56C151.708 64.904 153.308 65.576 155.228 65.576ZM206.093 44.024C209.357 44.024 211.981 45.032 213.965 47.048C215.981 49.032 216.989 51.816 216.989 55.4V71H210.269V56.312C210.269 54.232 209.741 52.648 208.685 51.56C207.629 50.44 206.189 49.88 204.365 49.88C202.541 49.88 201.085 50.44 199.997 51.56C198.941 52.648 198.413 54.232 198.413 56.312V71H191.693V56.312C191.693 54.232 191.165 52.648 190.109 51.56C189.053 50.44 187.613 49.88 185.789 49.88C183.933 49.88 182.461 50.44 181.373 51.56C180.317 52.648 179.789 54.232 179.789 56.312V71H173.069V44.408H179.789V47.624C180.653 46.504 181.757 45.624 183.101 44.984C184.477 44.344 185.981 44.024 187.613 44.024C189.693 44.024 191.549 44.472 193.181 45.368C194.813 46.232 196.077 47.48 196.973 49.112C197.837 47.576 199.085 46.344 200.717 45.416C202.381 44.488 204.173 44.024 206.093 44.024ZM247.126 57.128C247.126 58.088 247.062 58.952 246.934 59.72H227.494C227.654 61.64 228.326 63.144 229.51 64.232C230.694 65.32 232.15 65.864 233.878 65.864C236.374 65.864 238.15 64.792 239.206 62.648H246.454C245.686 65.208 244.214 67.32 242.038 68.984C239.862 70.616 237.19 71.432 234.022 71.432C231.462 71.432 229.158 70.872 227.11 69.752C225.094 68.6 223.51 66.984 222.358 64.904C221.238 62.824 220.678 60.424 220.678 57.704C220.678 54.952 221.238 52.536 222.358 50.456C223.478 48.376 225.046 46.776 227.062 45.656C229.078 44.536 231.398 43.976 234.022 43.976C236.55 43.976 238.806 44.52 240.79 45.608C242.806 46.696 244.358 48.248 245.446 50.264C246.566 52.248 247.126 54.536 247.126 57.128ZM240.166 55.208C240.134 53.48 239.51 52.104 238.294 51.08C237.078 50.024 235.59 49.496 233.83 49.496C232.166 49.496 230.758 50.008 229.606 51.032C228.486 52.024 227.798 53.416 227.542 55.208H240.166ZM258.895 49.928V62.792C258.895 63.688 259.103 64.344 259.519 64.76C259.967 65.144 260.703 65.336 261.727 65.336H264.847V71H260.623C254.959 71 252.127 68.248 252.127 62.744V49.928H248.959V44.408H252.127V37.832H258.895V44.408H264.847V49.928H258.895ZM283.697 44.024C285.713 44.024 287.505 44.472 289.073 45.368C290.641 46.232 291.857 47.528 292.721 49.256C293.617 50.952 294.065 53 294.065 55.4V71H287.345V56.312C287.345 54.2 286.817 52.584 285.761 51.464C284.705 50.312 283.265 49.736 281.441 49.736C279.585 49.736 278.113 50.312 277.025 51.464C275.969 52.584 275.441 54.2 275.441 56.312V71H268.721V35.48H275.441V47.72C276.305 46.568 277.457 45.672 278.897 45.032C280.337 44.36 281.937 44.024 283.697 44.024ZM302.903 41.24C301.719 41.24 300.727 40.872 299.927 40.136C299.159 39.368 298.775 38.424 298.775 37.304C298.775 36.184 299.159 35.256 299.927 34.52C300.727 33.752 301.719 33.368 302.903 33.368C304.087 33.368 305.063 33.752 305.831 34.52C306.631 35.256 307.031 36.184 307.031 37.304C307.031 38.424 306.631 39.368 305.831 40.136C305.063 40.872 304.087 41.24 302.903 41.24ZM306.215 44.408V71H299.495V44.408H306.215ZM326.63 44.024C329.798 44.024 332.358 45.032 334.31 47.048C336.262 49.032 337.238 51.816 337.238 55.4V71H330.518V56.312C330.518 54.2 329.99 52.584 328.934 51.464C327.878 50.312 326.438 49.736 324.614 49.736C322.758 49.736 321.286 50.312 320.198 51.464C319.142 52.584 318.614 54.2 318.614 56.312V71H311.894V44.408H318.614V47.72C319.51 46.568 320.646 45.672 322.022 45.032C323.43 44.36 324.966 44.024 326.63 44.024ZM353.085 43.976C355.069 43.976 356.813 44.376 358.317 45.176C359.821 45.944 361.005 46.952 361.869 48.2V44.408H368.637V71.192C368.637 73.656 368.141 75.848 367.149 77.768C366.157 79.72 364.669 81.256 362.685 82.376C360.701 83.528 358.301 84.104 355.485 84.104C351.709 84.104 348.605 83.224 346.173 81.464C343.773 79.704 342.413 77.304 342.093 74.264H348.765C349.117 75.48 349.869 76.44 351.021 77.144C352.205 77.88 353.629 78.248 355.293 78.248C357.245 78.248 358.829 77.656 360.045 76.472C361.261 75.32 361.869 73.56 361.869 71.192V67.064C361.005 68.312 359.805 69.352 358.269 70.184C356.765 71.016 355.037 71.432 353.085 71.432C350.845 71.432 348.797 70.856 346.941 69.704C345.085 68.552 343.613 66.936 342.525 64.856C341.469 62.744 340.941 60.328 340.941 57.608C340.941 54.92 341.469 52.536 342.525 50.456C343.613 48.376 345.069 46.776 346.893 45.656C348.749 44.536 350.813 43.976 353.085 43.976ZM361.869 57.704C361.869 56.072 361.549 54.68 360.909 53.528C360.269 52.344 359.405 51.448 358.317 50.84C357.229 50.2 356.061 49.88 354.813 49.88C353.565 49.88 352.413 50.184 351.357 50.792C350.301 51.4 349.437 52.296 348.765 53.48C348.125 54.632 347.805 56.008 347.805 57.608C347.805 59.208 348.125 60.616 348.765 61.832C349.437 63.016 350.301 63.928 351.357 64.568C352.445 65.208 353.597 65.528 354.813 65.528C356.061 65.528 357.229 65.224 358.317 64.616C359.405 63.976 360.269 63.08 360.909 61.928C361.549 60.744 361.869 59.336 361.869 57.704ZM388.126 41.24C386.942 41.24 385.95 40.872 385.15 40.136C384.382 39.368 383.998 38.424 383.998 37.304C383.998 36.184 384.382 35.256 385.15 34.52C385.95 33.752 386.942 33.368 388.126 33.368C389.31 33.368 390.286 33.752 391.054 34.52C391.854 35.256 392.254 36.184 392.254 37.304C392.254 38.424 391.854 39.368 391.054 40.136C390.286 40.872 389.31 41.24 388.126 41.24ZM391.438 44.408V71H384.718V44.408H391.438ZM411.853 44.024C415.021 44.024 417.581 45.032 419.533 47.048C421.485 49.032 422.461 51.816 422.461 55.4V71H415.741V56.312C415.741 54.2 415.213 52.584 414.157 51.464C413.101 50.312 411.661 49.736 409.837 49.736C407.981 49.736 406.509 50.312 405.421 51.464C404.365 52.584 403.837 54.2 403.837 56.312V71H397.117V44.408H403.837V47.72C404.733 46.568 405.869 45.672 407.245 45.032C408.653 44.36 410.189 44.024 411.853 44.024ZM474.897 37.496V71H468.177V49.208L459.201 71H454.113L445.089 49.208V71H438.369V37.496H446.001L456.657 62.408L467.313 37.496H474.897ZM483.989 41.24C482.805 41.24 481.813 40.872 481.013 40.136C480.245 39.368 479.861 38.424 479.861 37.304C479.861 36.184 480.245 35.256 481.013 34.52C481.813 33.752 482.805 33.368 483.989 33.368C485.173 33.368 486.149 33.752 486.917 34.52C487.717 35.256 488.117 36.184 488.117 37.304C488.117 38.424 487.717 39.368 486.917 40.136C486.149 40.872 485.173 41.24 483.989 41.24ZM487.301 44.408V71H480.581V44.408H487.301ZM507.716 44.024C510.884 44.024 513.444 45.032 515.396 47.048C517.348 49.032 518.324 51.816 518.324 55.4V71H511.604V56.312C511.604 54.2 511.076 52.584 510.02 51.464C508.964 50.312 507.524 49.736 505.7 49.736C503.844 49.736 502.372 50.312 501.284 51.464C500.228 52.584 499.7 54.2 499.7 56.312V71H492.98V44.408H499.7V47.72C500.596 46.568 501.732 45.672 503.108 45.032C504.516 44.36 506.052 44.024 507.716 44.024ZM522.027 57.608C522.027 54.92 522.555 52.536 523.611 50.456C524.699 48.376 526.171 46.776 528.027 45.656C529.883 44.536 531.947 43.976 534.219 43.976C535.947 43.976 537.595 44.36 539.163 45.128C540.731 45.864 541.979 46.856 542.907 48.104V35.48H549.723V71H542.907V67.064C542.075 68.376 540.907 69.432 539.403 70.232C537.899 71.032 536.155 71.432 534.171 71.432C531.931 71.432 529.883 70.856 528.027 69.704C526.171 68.552 524.699 66.936 523.611 64.856C522.555 62.744 522.027 60.328 522.027 57.608ZM542.955 57.704C542.955 56.072 542.635 54.68 541.995 53.528C541.355 52.344 540.491 51.448 539.403 50.84C538.315 50.2 537.147 49.88 535.899 49.88C534.651 49.88 533.499 50.184 532.443 50.792C531.387 51.4 530.523 52.296 529.851 53.48C529.211 54.632 528.891 56.008 528.891 57.608C528.891 59.208 529.211 60.616 529.851 61.832C530.523 63.016 531.387 63.928 532.443 64.568C533.531 65.208 534.683 65.528 535.899 65.528C537.147 65.528 538.315 65.224 539.403 64.616C540.491 63.976 541.355 63.08 541.995 61.928C542.635 60.744 542.955 59.336 542.955 57.704ZM564.686 36.344C568.014 36.344 570.686 37.256 572.702 39.08C574.75 40.872 575.774 43.352 575.774 46.52C575.774 49.656 574.766 52.056 572.75 53.72C570.734 55.352 568.062 56.168 564.734 56.168L564.542 59.864H558.638L558.398 51.704H560.558C563.342 51.704 565.486 51.336 566.99 50.6C568.494 49.864 569.246 48.52 569.246 46.568C569.246 45.16 568.83 44.04 567.998 43.208C567.198 42.376 566.094 41.96 564.686 41.96C563.214 41.96 562.062 42.36 561.23 43.16C560.43 43.96 560.03 45.064 560.03 46.472H553.694C553.662 44.52 554.078 42.776 554.942 41.24C555.806 39.704 557.07 38.504 558.734 37.64C560.43 36.776 562.414 36.344 564.686 36.344ZM561.566 71.336C560.35 71.336 559.342 70.968 558.542 70.232C557.774 69.464 557.39 68.52 557.39 67.4C557.39 66.28 557.774 65.352 558.542 64.616C559.342 63.848 560.35 63.464 561.566 63.464C562.75 63.464 563.726 63.848 564.494 64.616C565.262 65.352 565.646 66.28 565.646 67.4C565.646 68.52 565.262 69.464 564.494 70.232C563.726 70.968 562.75 71.336 561.566 71.336Z" fill="#282727"/>
<path d="M25 92.2842C95.9197 88.6808 168.496 88.108 240.111 88.0056C350.972 87.847 460.685 91.1132 571 94" stroke="#3F59D9" stroke-width="3" stroke-linecap="round"/>
</svg>
