<svg width="116" height="29" viewBox="0 0 116 29" fill="none" xmlns="http://www.w3.org/2000/svg">
<path d="M21.5048 17.1681L15.6919 7.6561H11.5112V21.3151H15.6919V11.8321L21.5048 21.3441H25.6569V7.6561H21.4475L21.5048 17.1681ZM54.4922 12.2671V10.9041H52.316V9.0481H48.2498V10.9041H46.0449V12.2671H48.2498V21.3441H52.316V12.2671H54.4922ZM27.9477 21.2861H31.9852V12.2381H27.9477V21.2861ZM27.9477 10.4691H32.0138V7.6561H27.9477V10.4691ZM98.8191 11.6001C95.5547 11.6001 92.8916 13.8911 92.8916 16.6751C92.8916 19.4591 95.5547 21.7501 98.8191 21.7501C102.083 21.7501 104.746 19.4591 104.746 16.6751C104.746 13.8911 102.083 11.6001 98.8191 11.6001ZM100.451 18.6181C100.451 20.0681 99.6208 20.6481 98.8191 20.6481C98.0173 20.6481 97.1582 20.0681 97.1582 18.6181V14.7901C97.1582 13.3401 97.9886 12.7601 98.8191 12.7601C99.6208 12.7601 100.451 13.3401 100.451 14.7901V18.6181ZM87.5942 12.6731C86.9356 12.2961 86.2483 11.9481 85.3034 11.8611C82.4113 11.6001 80.1491 14.2101 80.1491 16.6171C80.1491 19.7781 82.5544 20.9381 82.8981 21.1121C84.2725 21.7501 86.0193 21.7791 87.5369 20.7931V21.3151H91.5172V7.6851H87.5369C87.5942 7.6561 87.5942 10.5851 87.5942 12.6731ZM87.6515 16.7331V18.3571C87.6515 19.7491 86.7065 20.1261 86.0479 20.1261C85.3893 20.1261 84.4443 19.7491 84.4443 18.3571V15.1091C84.4443 13.7171 85.3893 13.3401 86.0479 13.3401C86.6779 13.3401 87.6515 13.7171 87.6515 15.1091V16.7331ZM41.4633 11.8321C40.1175 11.8611 39.0294 12.4701 38.2276 13.1951V12.2381H34.1901V21.3151H38.2276V15.3411C38.2276 14.5581 39.058 13.6881 40.1461 13.6881C41.2343 13.6881 42.0074 14.5871 42.0074 15.3411V21.3151H46.0449V16.3851C46.0449 12.7891 42.981 11.7451 41.4633 11.8321ZM74.3076 11.8321C73.1049 11.8611 71.9595 12.3541 71.0718 13.1951V12.2381H67.0343V21.3151H71.0718V15.3411C71.0718 14.5581 71.9022 13.6881 72.9904 13.6881C74.0785 13.6881 74.8516 14.5871 74.8516 15.3411V21.3151H78.8892V16.3851C78.8892 12.7891 75.8252 11.7451 74.3076 11.8321ZM65.8603 16.7911C65.8603 13.9781 63.1686 11.6291 59.9042 11.6291C56.6112 11.6291 53.9482 13.9201 53.9482 16.7041C53.9482 19.5171 56.6112 21.7791 59.9042 21.7791C62.6245 21.7791 64.944 20.1841 65.6312 18.0671H61.5937V18.6181C61.5937 20.2711 60.5056 20.6481 59.9329 20.6481C59.3029 20.6481 58.2148 20.2711 58.2148 18.6181V16.7331L65.8603 16.7911ZM58.5297 13.6011C58.8447 13.1081 59.3602 12.7891 59.9329 12.7891C60.4769 12.7891 61.021 13.0501 61.336 13.6011C61.5937 14.0361 61.5937 14.5871 61.5937 15.3701H58.2148C58.2434 14.5871 58.272 14.0651 58.5297 13.6011ZM106.321 9.3671C106.321 8.9321 106.006 8.7001 105.348 8.7001H104.432V11.0201H104.976V10.0631H105.262L105.691 11.0201H106.321L105.806 9.9761C106.15 9.8891 106.321 9.6571 106.321 9.3671ZM105.291 9.6861H105.004V9.0191H105.262C105.577 9.0191 105.777 9.1351 105.777 9.3381C105.749 9.6281 105.606 9.6861 105.291 9.6861ZM105.319 7.7721C104.202 7.7721 103.257 8.7291 103.257 9.8601C103.257 10.9911 104.202 11.9481 105.319 11.9481C106.436 11.9481 107.381 10.9911 107.381 9.8601C107.381 8.7291 106.465 7.7721 105.319 7.7721ZM105.319 11.5711C104.403 11.5711 103.658 10.8171 103.658 9.8891C103.658 8.9611 104.431 8.2071 105.319 8.2071C106.235 8.2071 106.98 8.9901 106.98 9.8891C106.98 10.7881 106.235 11.5711 105.319 11.5711ZM100.766 9.50335e-05H15.1479C6.0706 -0.028905 0 6.5831 0 14.5291C0 22.4461 6.0706 29.0001 15.1765 29.0001H100.824C109.929 29.0001 116 22.4461 116 14.5291C115.943 6.6121 109.843 9.50335e-05 100.766 9.50335e-05ZM100.738 25.4621H15.1765C7.9605 25.4911 3.55073 20.5611 3.55073 14.5291C3.55073 8.4971 7.98914 3.6251 15.1765 3.5961H100.738C107.925 3.5961 112.363 8.4971 112.363 14.5291C112.363 20.5611 107.954 25.4621 100.738 25.4621Z" fill="white"/>
</svg>
