<svg width="112" height="20" viewBox="0 0 112 20" fill="none" xmlns="http://www.w3.org/2000/svg">
<path d="M1.43188 2.85714C2.23351 2.85714 2.86375 2.22948 2.86375 1.42858C2.86375 0.629926 2.23351 0 1.43188 0C0.63138 0 0 0.629926 0 1.42858C0 2.22948 0.63138 2.85714 1.43188 2.85714ZM12.8869 2.85714C13.6885 2.85714 14.3188 2.22948 14.3188 1.42858C14.3188 0.629926 13.6885 0 12.8869 0C12.0864 0 11.455 0.629926 11.455 1.42858C11.455 2.22948 12.0864 2.85714 12.8869 2.85714ZM1.43188 7.14286C2.23351 7.14286 2.86375 6.51519 2.86375 5.71429C2.86375 4.91564 2.23351 4.28572 1.43188 4.28572C0.63138 4.28572 0 4.91564 0 5.71429C0 6.51519 0.63138 7.14286 1.43188 7.14286ZM4.29563 7.14286C5.09726 7.14286 5.72751 6.51519 5.72751 5.71429C5.72751 4.91564 5.09726 4.28572 4.29563 4.28572C3.49513 4.28572 2.86375 4.91564 2.86375 5.71429C2.86375 6.51519 3.49513 7.14286 4.29563 7.14286ZM12.8869 7.14286C13.6885 7.14286 14.3188 6.51519 14.3188 5.71429C14.3188 4.91564 13.6885 4.28572 12.8869 4.28572C12.0864 4.28572 11.455 4.91564 11.455 5.71429C11.455 6.51519 12.0864 7.14286 12.8869 7.14286ZM1.43188 11.4286C2.23351 11.4286 2.86375 10.8009 2.86375 10C2.86375 9.20135 2.23351 8.57143 1.43188 8.57143C0.63138 8.57143 0 9.20135 0 10C0 10.8009 0.63138 11.4286 1.43188 11.4286ZM7.15939 11.4286C7.96102 11.4286 8.59127 10.8009 8.59127 10C8.59127 9.20135 7.96102 8.57143 7.15939 8.57143C6.35889 8.57143 5.72751 9.20135 5.72751 10C5.72751 10.8009 6.35889 11.4286 7.15939 11.4286ZM12.8869 11.4286C13.6885 11.4286 14.3188 10.8009 14.3188 10C14.3188 9.20135 13.6885 8.57143 12.8869 8.57143C12.0864 8.57143 11.455 9.20135 11.455 10C11.455 10.8009 12.0864 11.4286 12.8869 11.4286ZM1.43188 15.7143C2.23351 15.7143 2.86375 15.0866 2.86375 14.2857C2.86375 13.4871 2.23351 12.8571 1.43188 12.8571C0.63138 12.8571 0 13.4871 0 14.2857C0 15.0866 0.63138 15.7143 1.43188 15.7143ZM10.0231 15.7143C10.8248 15.7143 11.455 15.0866 11.455 14.2857C11.455 13.4871 10.8248 12.8571 10.0231 12.8571C9.22265 12.8571 8.59127 13.4871 8.59127 14.2857C8.59127 15.0866 9.22265 15.7143 10.0231 15.7143ZM12.8869 15.7143C13.6885 15.7143 14.3188 15.0866 14.3188 14.2857C14.3188 13.4871 13.6885 12.8571 12.8869 12.8571C12.0864 12.8571 11.455 13.4871 11.455 14.2857C11.455 15.0866 12.0864 15.7143 12.8869 15.7143ZM1.43188 20C2.23351 20 2.86375 19.3723 2.86375 18.5714C2.86375 17.7728 2.23351 17.1429 1.43188 17.1429C0.63138 17.1429 0 17.7728 0 18.5714C0 19.3723 0.63138 20 1.43188 20ZM12.8869 20C13.6885 20 14.3188 19.3723 14.3188 18.5714C14.3188 17.7728 13.6885 17.1429 12.8869 17.1429C12.0864 17.1429 11.455 17.7728 11.455 18.5714C11.455 19.3723 12.0864 20 12.8869 20ZM21.4669 2.85714C22.2697 2.85714 22.8988 2.22948 22.8988 1.42858C22.8988 0.629926 22.2697 0 21.4669 0C20.6664 0 20.035 0.629926 20.035 1.42858C20.035 2.22948 20.6664 2.85714 21.4669 2.85714ZM24.3307 2.85714C25.1334 2.85714 25.7625 2.22948 25.7625 1.42858C25.7625 0.629926 25.1334 0 24.3307 0C23.5302 0 22.8988 0.629926 22.8988 1.42858C22.8988 2.22948 23.5302 2.85714 24.3307 2.85714ZM27.1944 2.85714C27.9972 2.85714 28.6263 2.22948 28.6263 1.42858C28.6263 0.629926 27.9972 0 27.1944 0C26.3939 0 25.7625 0.629926 25.7625 1.42858C25.7625 2.22948 26.3939 2.85714 27.1944 2.85714ZM18.6031 7.14286C19.4059 7.14286 20.035 6.51519 20.035 5.71429C20.035 4.91564 19.4059 4.28572 18.6031 4.28572C17.8026 4.28572 17.1713 4.91564 17.1713 5.71429C17.1713 6.51519 17.8026 7.14286 18.6031 7.14286ZM30.0582 7.14286C30.8609 7.14286 31.4901 6.51519 31.4901 5.71429C31.4901 4.91564 30.8609 4.28572 30.0582 4.28572C29.2577 4.28572 28.6263 4.91564 28.6263 5.71429C28.6263 6.51519 29.2577 7.14286 30.0582 7.14286ZM18.6031 11.4286C19.4059 11.4286 20.035 10.8009 20.035 10C20.035 9.20135 19.4059 8.57143 18.6031 8.57143C17.8026 8.57143 17.1713 9.20135 17.1713 10C17.1713 10.8009 17.8026 11.4286 18.6031 11.4286ZM30.0582 11.4286C30.8609 11.4286 31.4901 10.8009 31.4901 10C31.4901 9.20135 30.8609 8.57143 30.0582 8.57143C29.2577 8.57143 28.6263 9.20135 28.6263 10C28.6263 10.8009 29.2577 11.4286 30.0582 11.4286ZM18.6031 15.7143C19.4059 15.7143 20.035 15.0866 20.035 14.2857C20.035 13.4871 19.4059 12.8571 18.6031 12.8571C17.8026 12.8571 17.1713 13.4871 17.1713 14.2857C17.1713 15.0866 17.8026 15.7143 18.6031 15.7143ZM30.0582 15.7143C30.8609 15.7143 31.4901 15.0866 31.4901 14.2857C31.4901 13.4871 30.8609 12.8571 30.0582 12.8571C29.2577 12.8571 28.6263 13.4871 28.6263 14.2857C28.6263 15.0866 29.2577 15.7143 30.0582 15.7143ZM21.4669 20C22.2697 20 22.8988 19.3723 22.8988 18.5714C22.8988 17.7728 22.2697 17.1429 21.4669 17.1429C20.6664 17.1429 20.035 17.7728 20.035 18.5714C20.035 19.3723 20.6664 20 21.4669 20ZM24.3307 20C25.1334 20 25.7625 19.3723 25.7625 18.5714C25.7625 17.7728 25.1334 17.1429 24.3307 17.1429C23.5302 17.1429 22.8988 17.7728 22.8988 18.5714C22.8988 19.3723 23.5302 20 24.3307 20ZM27.1944 20C27.9972 20 28.6263 19.3723 28.6263 18.5714C28.6263 17.7728 27.9972 17.1429 27.1944 17.1429C26.3939 17.1429 25.7625 17.7728 25.7625 18.5714C25.7625 19.3723 26.3939 20 27.1944 20ZM35.7744 2.85714C36.5772 2.85714 37.2063 2.22948 37.2063 1.42858C37.2063 0.629926 36.5772 0 35.7744 0C34.9739 0 34.3425 0.629926 34.3425 1.42858C34.3425 2.22948 34.9739 2.85714 35.7744 2.85714ZM38.6382 2.85714C39.4409 2.85714 40.0701 2.22948 40.0701 1.42858C40.0701 0.629926 39.4409 0 38.6382 0C37.8377 0 37.2063 0.629926 37.2063 1.42858C37.2063 2.22948 37.8377 2.85714 38.6382 2.85714ZM41.5019 2.85714C42.3047 2.85714 42.9338 2.22948 42.9338 1.42858C42.9338 0.629926 42.3047 0 41.5019 0C40.7014 0 40.0701 0.629926 40.0701 1.42858C40.0701 2.22948 40.7014 2.85714 41.5019 2.85714ZM44.3657 2.85714C45.1684 2.85714 45.7976 2.22948 45.7976 1.42858C45.7976 0.629926 45.1684 0 44.3657 0C43.5652 0 42.9338 0.629926 42.9338 1.42858C42.9338 2.22948 43.5652 2.85714 44.3657 2.85714ZM47.2294 2.85714C48.0322 2.85714 48.6613 2.22948 48.6613 1.42858C48.6613 0.629926 48.0322 0 47.2294 0C46.4289 0 45.7976 0.629926 45.7976 1.42858C45.7976 2.22948 46.4289 2.85714 47.2294 2.85714ZM41.5019 7.14286C42.3047 7.14286 42.9338 6.51519 42.9338 5.71429C42.9338 4.91564 42.3047 4.28572 41.5019 4.28572C40.7014 4.28572 40.0701 4.91564 40.0701 5.71429C40.0701 6.51519 40.7014 7.14286 41.5019 7.14286ZM41.5019 11.4286C42.3047 11.4286 42.9338 10.8009 42.9338 10C42.9338 9.20135 42.3047 8.57143 41.5019 8.57143C40.7014 8.57143 40.0701 9.20135 40.0701 10C40.0701 10.8009 40.7014 11.4286 41.5019 11.4286ZM41.5019 15.7143C42.3047 15.7143 42.9338 15.0866 42.9338 14.2857C42.9338 13.4871 42.3047 12.8571 41.5019 12.8571C40.7014 12.8571 40.0701 13.4871 40.0701 14.2857C40.0701 15.0866 40.7014 15.7143 41.5019 15.7143ZM41.5019 20C42.3047 20 42.9338 19.3723 42.9338 18.5714C42.9338 17.7728 42.3047 17.1429 41.5019 17.1429C40.7014 17.1429 40.0701 17.7728 40.0701 18.5714C40.0701 19.3723 40.7014 20 41.5019 20ZM52.9457 2.85714C53.7484 2.85714 54.3776 2.22948 54.3776 1.42858C54.3776 0.629926 53.7484 0 52.9457 0C52.1452 0 51.5138 0.629926 51.5138 1.42858C51.5138 2.22948 52.1452 2.85714 52.9457 2.85714ZM64.4007 2.85714C65.2035 2.85714 65.8326 2.22948 65.8326 1.42858C65.8326 0.629926 65.2035 0 64.4007 0C63.6002 0 62.9688 0.629926 62.9688 1.42858C62.9688 2.22948 63.6002 2.85714 64.4007 2.85714ZM52.9457 7.14286C53.7484 7.14286 54.3776 6.51519 54.3776 5.71429C54.3776 4.91564 53.7484 4.28572 52.9457 4.28572C52.1452 4.28572 51.5138 4.91564 51.5138 5.71429C51.5138 6.51519 52.1452 7.14286 52.9457 7.14286ZM64.4007 7.14286C65.2035 7.14286 65.8326 6.51519 65.8326 5.71429C65.8326 4.91564 65.2035 4.28572 64.4007 4.28572C63.6002 4.28572 62.9688 4.91564 62.9688 5.71429C62.9688 6.51519 63.6002 7.14286 64.4007 7.14286ZM52.9457 11.4286C53.7484 11.4286 54.3776 10.8009 54.3776 10C54.3776 9.20135 53.7484 8.57143 52.9457 8.57143C52.1452 8.57143 51.5138 9.20135 51.5138 10C51.5138 10.8009 52.1452 11.4286 52.9457 11.4286ZM55.8094 11.4286C56.6122 11.4286 57.2413 10.8009 57.2413 10C57.2413 9.20135 56.6122 8.57143 55.8094 8.57143C55.0089 8.57143 54.3776 9.20135 54.3776 10C54.3776 10.8009 55.0089 11.4286 55.8094 11.4286ZM58.6732 11.4286C59.476 11.4286 60.1051 10.8009 60.1051 10C60.1051 9.20135 59.476 8.57143 58.6732 8.57143C57.8727 8.57143 57.2413 9.20135 57.2413 10C57.2413 10.8009 57.8727 11.4286 58.6732 11.4286ZM61.537 11.4286C62.3397 11.4286 62.9688 10.8009 62.9688 10C62.9688 9.20135 62.3397 8.57143 61.537 8.57143C60.7365 8.57143 60.1051 9.20135 60.1051 10C60.1051 10.8009 60.7365 11.4286 61.537 11.4286ZM64.4007 11.4286C65.2035 11.4286 65.8326 10.8009 65.8326 10C65.8326 9.20135 65.2035 8.57143 64.4007 8.57143C63.6002 8.57143 62.9688 9.20135 62.9688 10C62.9688 10.8009 63.6002 11.4286 64.4007 11.4286ZM52.9457 15.7143C53.7484 15.7143 54.3776 15.0866 54.3776 14.2857C54.3776 13.4871 53.7484 12.8571 52.9457 12.8571C52.1452 12.8571 51.5138 13.4871 51.5138 14.2857C51.5138 15.0866 52.1452 15.7143 52.9457 15.7143ZM64.4007 15.7143C65.2035 15.7143 65.8326 15.0866 65.8326 14.2857C65.8326 13.4871 65.2035 12.8571 64.4007 12.8571C63.6002 12.8571 62.9688 13.4871 62.9688 14.2857C62.9688 15.0866 63.6002 15.7143 64.4007 15.7143ZM52.9457 20C53.7484 20 54.3776 19.3723 54.3776 18.5714C54.3776 17.7728 53.7484 17.1429 52.9457 17.1429C52.1452 17.1429 51.5138 17.7728 51.5138 18.5714C51.5138 19.3723 52.1452 20 52.9457 20ZM64.4007 20C65.2035 20 65.8326 19.3723 65.8326 18.5714C65.8326 17.7728 65.2035 17.1429 64.4007 17.1429C63.6002 17.1429 62.9688 17.7728 62.9688 18.5714C62.9688 19.3723 63.6002 20 64.4007 20ZM70.1181 2.85714C70.9186 2.85714 71.55 2.22948 71.55 1.42858C71.55 0.629926 70.9186 0 70.1181 0C69.3153 0 68.6862 0.629926 68.6862 1.42858C68.6862 2.22948 69.3153 2.85714 70.1181 2.85714ZM72.9818 2.85714C73.7823 2.85714 74.4137 2.22948 74.4137 1.42858C74.4137 0.629926 73.7823 0 72.9818 0C72.1791 0 71.55 0.629926 71.55 1.42858C71.55 2.22948 72.1791 2.85714 72.9818 2.85714ZM75.8456 2.85714C76.6461 2.85714 77.2775 2.22948 77.2775 1.42858C77.2775 0.629926 76.6461 0 75.8456 0C75.0428 0 74.4137 0.629926 74.4137 1.42858C74.4137 2.22948 75.0428 2.85714 75.8456 2.85714ZM72.9818 7.14286C73.7823 7.14286 74.4137 6.51519 74.4137 5.71429C74.4137 4.91564 73.7823 4.28572 72.9818 4.28572C72.1791 4.28572 71.55 4.91564 71.55 5.71429C71.55 6.51519 72.1791 7.14286 72.9818 7.14286ZM72.9818 11.4286C73.7823 11.4286 74.4137 10.8009 74.4137 10C74.4137 9.20135 73.7823 8.57143 72.9818 8.57143C72.1791 8.57143 71.55 9.20135 71.55 10C71.55 10.8009 72.1791 11.4286 72.9818 11.4286ZM72.9818 15.7143C73.7823 15.7143 74.4137 15.0866 74.4137 14.2857C74.4137 13.4871 73.7823 12.8571 72.9818 12.8571C72.1791 12.8571 71.55 13.4871 71.55 14.2857C71.55 15.0866 72.1791 15.7143 72.9818 15.7143ZM70.1181 20C70.9186 20 71.55 19.3723 71.55 18.5714C71.55 17.7728 70.9186 17.1429 70.1181 17.1429C69.3153 17.1429 68.6862 17.7728 68.6862 18.5714C68.6862 19.3723 69.3153 20 70.1181 20ZM72.9818 20C73.7823 20 74.4137 19.3723 74.4137 18.5714C74.4137 17.7728 73.7823 17.1429 72.9818 17.1429C72.1791 17.1429 71.55 17.7728 71.55 18.5714C71.55 19.3723 72.1791 20 72.9818 20ZM75.8456 20C76.6461 20 77.2775 19.3723 77.2775 18.5714C77.2775 17.7728 76.6461 17.1429 75.8456 17.1429C75.0428 17.1429 74.4137 17.7728 74.4137 18.5714C74.4137 19.3723 75.0428 20 75.8456 20ZM81.5833 2.85714C82.386 2.85714 83.0151 2.22948 83.0151 1.42858C83.0151 0.629926 82.386 0 81.5833 0C80.7828 0 80.1514 0.629926 80.1514 1.42858C80.1514 2.22948 80.7828 2.85714 81.5833 2.85714ZM93.0383 2.85714C93.841 2.85714 94.4702 2.22948 94.4702 1.42858C94.4702 0.629926 93.841 0 93.0383 0C92.2378 0 91.6064 0.629926 91.6064 1.42858C91.6064 2.22948 92.2378 2.85714 93.0383 2.85714ZM81.5833 7.14286C82.386 7.14286 83.0151 6.51519 83.0151 5.71429C83.0151 4.91564 82.386 4.28572 81.5833 4.28572C80.7828 4.28572 80.1514 4.91564 80.1514 5.71429C80.1514 6.51519 80.7828 7.14286 81.5833 7.14286ZM84.447 7.14286C85.2498 7.14286 85.8789 6.51519 85.8789 5.71429C85.8789 4.91564 85.2498 4.28572 84.447 4.28572C83.6465 4.28572 83.0151 4.91564 83.0151 5.71429C83.0151 6.51519 83.6465 7.14286 84.447 7.14286ZM93.0383 7.14286C93.841 7.14286 94.4702 6.51519 94.4702 5.71429C94.4702 4.91564 93.841 4.28572 93.0383 4.28572C92.2378 4.28572 91.6064 4.91564 91.6064 5.71429C91.6064 6.51519 92.2378 7.14286 93.0383 7.14286ZM81.5833 11.4286C82.386 11.4286 83.0151 10.8009 83.0151 10C83.0151 9.20135 82.386 8.57143 81.5833 8.57143C80.7828 8.57143 80.1514 9.20135 80.1514 10C80.1514 10.8009 80.7828 11.4286 81.5833 11.4286ZM87.3108 11.4286C88.1135 11.4286 88.7426 10.8009 88.7426 10C88.7426 9.20135 88.1135 8.57143 87.3108 8.57143C86.5103 8.57143 85.8789 9.20135 85.8789 10C85.8789 10.8009 86.5103 11.4286 87.3108 11.4286ZM93.0383 11.4286C93.841 11.4286 94.4702 10.8009 94.4702 10C94.4702 9.20135 93.841 8.57143 93.0383 8.57143C92.2378 8.57143 91.6064 9.20135 91.6064 10C91.6064 10.8009 92.2378 11.4286 93.0383 11.4286ZM81.5833 15.7143C82.386 15.7143 83.0151 15.0866 83.0151 14.2857C83.0151 13.4871 82.386 12.8571 81.5833 12.8571C80.7828 12.8571 80.1514 13.4871 80.1514 14.2857C80.1514 15.0866 80.7828 15.7143 81.5833 15.7143ZM90.1745 15.7143C90.9773 15.7143 91.6064 15.0866 91.6064 14.2857C91.6064 13.4871 90.9773 12.8571 90.1745 12.8571C89.374 12.8571 88.7426 13.4871 88.7426 14.2857C88.7426 15.0866 89.374 15.7143 90.1745 15.7143ZM93.0383 15.7143C93.841 15.7143 94.4702 15.0866 94.4702 14.2857C94.4702 13.4871 93.841 12.8571 93.0383 12.8571C92.2378 12.8571 91.6064 13.4871 91.6064 14.2857C91.6064 15.0866 92.2378 15.7143 93.0383 15.7143ZM81.5833 20C82.386 20 83.0151 19.3723 83.0151 18.5714C83.0151 17.7728 82.386 17.1429 81.5833 17.1429C80.7828 17.1429 80.1514 17.7728 80.1514 18.5714C80.1514 19.3723 80.7828 20 81.5833 20ZM93.0383 20C93.841 20 94.4702 19.3723 94.4702 18.5714C94.4702 17.7728 93.841 17.1429 93.0383 17.1429C92.2378 17.1429 91.6064 17.7728 91.6064 18.5714C91.6064 19.3723 92.2378 20 93.0383 20ZM101.619 2.85714C102.42 2.85714 103.051 2.22948 103.051 1.42858C103.051 0.629926 102.42 0 101.619 0C100.817 0 100.188 0.629926 100.188 1.42858C100.188 2.22948 100.817 2.85714 101.619 2.85714ZM104.483 2.85714C105.284 2.85714 105.915 2.22948 105.915 1.42858C105.915 0.629926 105.284 0 104.483 0C103.68 0 103.051 0.629926 103.051 1.42858C103.051 2.22948 103.68 2.85714 104.483 2.85714ZM107.347 2.85714C108.147 2.85714 108.779 2.22948 108.779 1.42858C108.779 0.629926 108.147 0 107.347 0C106.544 0 105.915 0.629926 105.915 1.42858C105.915 2.22948 106.544 2.85714 107.347 2.85714ZM110.211 2.85714C111.011 2.85714 111.643 2.22948 111.643 1.42858C111.643 0.629926 111.011 0 110.211 0C109.408 0 108.779 0.629926 108.779 1.42858C108.779 2.22948 109.408 2.85714 110.211 2.85714ZM98.7556 7.14286C99.5561 7.14286 100.188 6.51519 100.188 5.71429C100.188 4.91564 99.5561 4.28572 98.7556 4.28572C97.9529 4.28572 97.3238 4.91564 97.3238 5.71429C97.3238 6.51519 97.9529 7.14286 98.7556 7.14286ZM98.7556 11.4286C99.5561 11.4286 100.188 10.8009 100.188 10C100.188 9.20135 99.5561 8.57143 98.7556 8.57143C97.9529 8.57143 97.3238 9.20135 97.3238 10C97.3238 10.8009 97.9529 11.4286 98.7556 11.4286ZM104.483 11.4286C105.284 11.4286 105.915 10.8009 105.915 10C105.915 9.20135 105.284 8.57143 104.483 8.57143C103.68 8.57143 103.051 9.20135 103.051 10C103.051 10.8009 103.68 11.4286 104.483 11.4286ZM107.347 11.4286C108.147 11.4286 108.779 10.8009 108.779 10C108.779 9.20135 108.147 8.57143 107.347 8.57143C106.544 8.57143 105.915 9.20135 105.915 10C105.915 10.8009 106.544 11.4286 107.347 11.4286ZM110.211 11.4286C111.011 11.4286 111.643 10.8009 111.643 10C111.643 9.20135 111.011 8.57143 110.211 8.57143C109.408 8.57143 108.779 9.20135 108.779 10C108.779 10.8009 109.408 11.4286 110.211 11.4286ZM98.7556 15.7143C99.5561 15.7143 100.188 15.0866 100.188 14.2857C100.188 13.4871 99.5561 12.8571 98.7556 12.8571C97.9529 12.8571 97.3238 13.4871 97.3238 14.2857C97.3238 15.0866 97.9529 15.7143 98.7556 15.7143ZM110.211 15.7143C111.011 15.7143 111.643 15.0866 111.643 14.2857C111.643 13.4871 111.011 12.8571 110.211 12.8571C109.408 12.8571 108.779 13.4871 108.779 14.2857C108.779 15.0866 109.408 15.7143 110.211 15.7143ZM101.619 20C102.42 20 103.051 19.3723 103.051 18.5714C103.051 17.7728 102.42 17.1429 101.619 17.1429C100.817 17.1429 100.188 17.7728 100.188 18.5714C100.188 19.3723 100.817 20 101.619 20ZM104.483 20C105.284 20 105.915 19.3723 105.915 18.5714C105.915 17.7728 105.284 17.1429 104.483 17.1429C103.68 17.1429 103.051 17.7728 103.051 18.5714C103.051 19.3723 103.68 20 104.483 20ZM107.347 20C108.147 20 108.779 19.3723 108.779 18.5714C108.779 17.7728 108.147 17.1429 107.347 17.1429C106.544 17.1429 105.915 17.7728 105.915 18.5714C105.915 19.3723 106.544 20 107.347 20Z" fill="white"/>
</svg>
