<svg width="62" height="48" viewBox="0 0 62 48" fill="none" xmlns="http://www.w3.org/2000/svg">
<mask id="mask0_14457_285586" style="mask-type:luminance" maskUnits="userSpaceOnUse" x="0" y="0" width="62" height="48">
<path d="M61.3333 48V0L0 0L0 48H61.3333Z" fill="white"/>
</mask>
<g mask="url(#mask0_14457_285586)">
<path fill-rule="evenodd" clip-rule="evenodd" d="M4.60356 40.8389C-0.233273 39.4553 -1.03972 36.5784 1.16438 34.9207C3.20316 33.3857 6.67118 32.2356 6.67118 32.2356L20.9925 27.0713V32.9574L10.6869 36.6991C8.86383 37.3633 8.5854 38.3001 10.0664 38.7911C11.5465 39.2825 14.2245 39.1422 16.0495 38.4785L20.9925 36.6592V41.9253C20.6798 41.9838 20.3313 42.0405 20.007 42.0939C15.0621 42.9151 9.79483 42.5727 4.60356 40.8389ZM34.8179 41.4515L50.8873 35.6462C52.7122 34.982 52.9906 34.0457 51.5096 33.5542C50.0286 33.0628 47.3496 33.2027 45.5256 33.8673L34.8179 37.6926V31.6054L35.4366 31.3926C35.4366 31.3926 38.53 30.2826 42.8805 29.7953C47.231 29.3091 52.5592 29.8608 56.7403 31.4674C61.4548 32.9783 61.9851 35.204 60.7867 36.7377C59.5887 38.2704 56.6533 39.3628 56.6533 39.3628L34.8179 47.3177V41.4515ZM36.6969 3.82532C45.1579 6.76956 48.0251 10.4365 48.0251 18.6965C48.0251 26.7466 43.1242 29.7986 36.8961 26.7503V11.7481C36.8961 9.98922 36.5783 8.36871 34.948 7.90796C33.6987 7.50155 32.9239 8.67897 32.9239 10.4379V48L22.9333 44.7841V0C27.1821 0.798878 33.3699 2.68832 36.6969 3.82532ZM58.9453 44.5839C58.9453 44.7107 58.9123 44.7989 58.8464 44.8444C58.774 44.8941 58.6737 44.9192 58.5473 44.9192H57.9167V44.2685H58.5849C58.6779 44.2685 58.7511 44.282 58.8038 44.3084C58.899 44.3567 58.9453 44.4469 58.9453 44.5839ZM59.3973 46.0692C59.3666 46.0558 59.3451 46.0223 59.3304 45.9675C59.3204 45.9308 59.3139 45.8704 59.3121 45.7919L59.3007 45.4951C59.2961 45.3549 59.2695 45.2546 59.2191 45.1895C59.1857 45.1445 59.1381 45.1096 59.0836 45.0762C59.1527 45.0293 59.2118 44.9745 59.2553 44.9076C59.3139 44.8142 59.3446 44.6972 59.3446 44.5555C59.3446 44.282 59.2315 44.0915 59.0085 43.988C58.8945 43.9364 58.7498 43.9095 58.5785 43.9095H57.5728H57.522V43.9615V46.1658V46.216H57.5728H57.8668H57.9167V46.1658V45.2713H58.5373C58.649 45.2713 58.7314 45.2829 58.78 45.3066C58.8615 45.3465 58.9041 45.4283 58.9091 45.5518L58.9274 45.9206C58.9316 46.0088 58.9371 46.0692 58.9439 46.1027C58.9503 46.1375 58.9595 46.1658 58.9719 46.1895L58.9865 46.216H59.0163H59.3767H59.4275V46.1658V46.1157V46.0827L59.3973 46.0692ZM56.6917 45.1064C56.6917 44.6456 56.869 44.2132 57.1895 43.8881C57.5105 43.5625 57.9369 43.3823 58.3907 43.3823C58.845 43.3823 59.2714 43.5625 59.5919 43.8881C59.9129 44.2132 60.0897 44.6456 60.0897 45.1064C60.0897 46.0558 59.3272 46.8286 58.3907 46.8286C57.9369 46.8286 57.5105 46.6498 57.1895 46.3247C56.869 45.9991 56.6917 45.5667 56.6917 45.1064ZM58.3907 47.1774C58.9361 47.1774 59.449 46.9619 59.8346 46.5699C60.2207 46.1793 60.4327 45.6586 60.4327 45.1064C60.4327 44.5523 60.2207 44.033 59.8346 43.641C59.449 43.2504 58.9361 43.0353 58.3907 43.0353C57.2655 43.0353 56.3487 43.9629 56.3487 45.1064C56.3487 45.6586 56.5612 46.1793 56.9468 46.5699C57.3329 46.9619 57.8453 47.1774 58.3907 47.1774Z" fill="white"/>
</g>
</svg>
