<svg width="100" height="40" viewBox="0 0 100 40" fill="none" xmlns="http://www.w3.org/2000/svg">
<path d="M9.95078 17.748L7.7029 17.584C6.01126 17.438 5.52964 17.05 5.52964 15.994C5.52964 15.249 5.94957 14.315 8.61439 14.368C11.1941 14.4605 13.7569 14.8255 16.2606 15.457L16.6586 10.5649C14.0248 9.9208 11.322 9.60543 8.6114 9.62594C3.30365 9.62594 0.0537271 11.382 0.0268599 15.86C-7.1674e-06 20.446 2.43296 21.6341 7.96161 22.0381C10.1209 22.1961 12.0295 22.4091 12.0295 24.0381C12.0295 25.2241 11.1558 25.5381 8.6114 25.4671C5.83054 25.3224 3.07274 24.8823 0.384102 24.1541L0 29.1541C2.79199 29.9968 5.6966 30.4015 8.6114 30.3541C16.4516 30.3541 17.2537 26.7541 17.2537 24.0011C17.2527 20.15 15.9133 18.358 9.95078 17.748Z" fill="white"/>
<path d="M99.9993 14.3631V9.79102H84.0213V14.5271H92.985V14.6911L83.3984 25.6031V30.2032H99.9993V25.4672H90.2774V25.3032L99.9993 14.3631Z" fill="white"/>
<path d="M50.8306 9.50635C45.0184 9.50635 41.7864 10.6723 41.3774 17.0344C41.2596 19.0076 41.2596 20.9862 41.3774 22.9594C41.9575 29.2595 44.9746 30.4885 50.8306 30.4885C56.6867 30.4885 59.7018 29.2555 60.2839 22.9594C60.4012 20.9862 60.4012 19.0077 60.2839 17.0344C59.8749 10.6723 56.6429 9.50635 50.8306 9.50635ZM54.6796 22.3585C54.5214 25.3205 53.6716 25.7255 50.8386 25.7255C48.0056 25.7255 47.2712 25.2875 46.9986 22.3585C46.9061 20.7771 46.9061 19.1917 46.9986 17.6104C47.1687 14.6104 48.0056 14.2694 50.8386 14.2694C53.6716 14.2694 54.5095 14.6114 54.6796 17.6104C54.7612 19.0524 54.7403 21.2584 54.6796 22.3585Z" fill="white"/>
<path d="M38.2286 30.2032V9.79102H32.8094V17.4651H25.7443V9.79102H20.3281V30.2032H25.7443V22.2031H32.8094V30.2032H38.2286Z" fill="white"/>
<path d="M81.2862 9.79102H74.7326L69.4289 17.6731H68.8537V9.79102H63.4375V30.2032H68.8537V22.0761H69.4289L75.1476 30.2032H81.8604L74.1237 19.4931L81.2862 9.79102Z" fill="white"/>
<path d="M50.8467 37.7893C48.3172 37.7893 42.3447 37.7894 38.245 33.6153L37.3047 34.6333C40.4501 38.0964 45.0941 39.9964 50.8566 39.9964C56.6191 39.9964 61.2731 38.0824 64.4235 34.6633L63.4543 33.6113C59.3536 37.7894 53.3821 37.7893 50.8467 37.7893Z" fill="white"/>
<path d="M40.3597 4.62805C43.7579 2.48003 47.7462 2.20203 50.8439 2.20203C53.9415 2.20203 57.9348 2.48003 61.328 4.62805C62.0955 5.11076 62.8074 5.67757 63.4505 6.31807L64.3958 5.29506C63.8219 4.68103 63.2014 4.11264 62.54 3.59503C59.0877 1.25197 55.0171 0 50.8513 0C46.6855 0 42.6149 1.25197 39.1626 3.59503C38.4969 4.11657 37.873 4.69003 37.2969 5.31006L38.2372 6.32307C38.8801 5.68082 39.592 5.11232 40.3597 4.62805Z" fill="white"/>
<path d="M50.8568 35.5356C55.4709 35.5356 59.0582 34.0836 61.3886 31.3806L60.0513 29.9336C57.9765 32.1786 54.7823 32.7786 50.8468 32.7786C46.9113 32.7786 43.7121 32.1786 41.6423 29.9336L40.3438 31.3336C42.6633 34.0836 46.2257 35.5356 50.8568 35.5356Z" fill="white"/>
<path d="M59.7848 7.0977C57.2014 5.2046 54.045 4.26989 50.8529 4.45269H50.837C47.6453 4.27004 44.4892 5.20475 41.9062 7.0977C41.3363 7.54247 40.8104 8.04147 40.3359 8.58774L41.6345 9.99574C43.8615 7.65972 47.2925 7.21571 50.845 7.21471C54.3974 7.21371 57.8284 7.66072 60.0554 9.99574L61.354 8.58774C60.8797 8.04161 60.3542 7.54262 59.7848 7.0977Z" fill="white"/>
</svg>
