<svg width="483" height="96" viewBox="0 0 483 96" fill="none" xmlns="http://www.w3.org/2000/svg">
<path d="M50.0572 37.496L40.6972 71H32.7772L26.4892 47.144L19.9132 71L12.0412 71.048L3.01724 37.496H10.2172L16.1212 63.512L22.9372 37.496H30.4252L36.8572 63.368L42.8092 37.496H50.0572ZM68.4611 44.024C70.4771 44.024 72.2691 44.472 73.8371 45.368C75.4051 46.232 76.6211 47.528 77.4851 49.256C78.3811 50.952 78.8291 53 78.8291 55.4V71H72.1091V56.312C72.1091 54.2 71.5811 52.584 70.5251 51.464C69.4691 50.312 68.0291 49.736 66.2051 49.736C64.3491 49.736 62.8771 50.312 61.7891 51.464C60.7331 52.584 60.2051 54.2 60.2051 56.312V71H53.4851V35.48H60.2051V47.72C61.0691 46.568 62.2211 45.672 63.6611 45.032C65.1011 44.36 66.7011 44.024 68.4611 44.024ZM82.5315 57.608C82.5315 54.92 83.0595 52.536 84.1155 50.456C85.2035 48.376 86.6595 46.776 88.4835 45.656C90.3395 44.536 92.4035 43.976 94.6755 43.976C96.6595 43.976 98.3875 44.376 99.8595 45.176C101.363 45.976 102.563 46.984 103.459 48.2V44.408H110.227V71H103.459V67.112C102.595 68.36 101.395 69.4 99.8595 70.232C98.3555 71.032 96.6115 71.432 94.6275 71.432C92.3875 71.432 90.3395 70.856 88.4835 69.704C86.6595 68.552 85.2035 66.936 84.1155 64.856C83.0595 62.744 82.5315 60.328 82.5315 57.608ZM103.459 57.704C103.459 56.072 103.139 54.68 102.499 53.528C101.859 52.344 100.995 51.448 99.9075 50.84C98.8195 50.2 97.6515 49.88 96.4035 49.88C95.1555 49.88 94.0035 50.184 92.9475 50.792C91.8915 51.4 91.0275 52.296 90.3555 53.48C89.7155 54.632 89.3955 56.008 89.3955 57.608C89.3955 59.208 89.7155 60.616 90.3555 61.832C91.0275 63.016 91.8915 63.928 92.9475 64.568C94.0355 65.208 95.1875 65.528 96.4035 65.528C97.6515 65.528 98.8195 65.224 99.9075 64.616C100.995 63.976 101.859 63.08 102.499 61.928C103.139 60.744 103.459 59.336 103.459 57.704ZM123.655 49.928V62.792C123.655 63.688 123.863 64.344 124.279 64.76C124.727 65.144 125.463 65.336 126.487 65.336H129.607V71H125.383C119.719 71 116.887 68.248 116.887 62.744V49.928H113.719V44.408H116.887V37.832H123.655V44.408H129.607V49.928H123.655ZM188.742 37.496L179.382 71H171.462L165.174 47.144L158.598 71L150.726 71.048L141.702 37.496H148.902L154.806 63.512L161.622 37.496H169.11L175.542 63.368L181.494 37.496H188.742ZM216.89 57.128C216.89 58.088 216.826 58.952 216.698 59.72H197.257C197.417 61.64 198.089 63.144 199.273 64.232C200.457 65.32 201.913 65.864 203.641 65.864C206.137 65.864 207.913 64.792 208.969 62.648H216.218C215.449 65.208 213.977 67.32 211.801 68.984C209.625 70.616 206.953 71.432 203.785 71.432C201.225 71.432 198.921 70.872 196.873 69.752C194.857 68.6 193.273 66.984 192.121 64.904C191.001 62.824 190.441 60.424 190.441 57.704C190.441 54.952 191.001 52.536 192.121 50.456C193.241 48.376 194.809 46.776 196.825 45.656C198.841 44.536 201.161 43.976 203.785 43.976C206.313 43.976 208.569 44.52 210.553 45.608C212.569 46.696 214.122 48.248 215.209 50.264C216.33 52.248 216.89 54.536 216.89 57.128ZM209.929 55.208C209.897 53.48 209.273 52.104 208.057 51.08C206.841 50.024 205.353 49.496 203.593 49.496C201.929 49.496 200.521 50.008 199.369 51.032C198.249 52.024 197.561 53.416 197.305 55.208H209.929ZM242.88 71.336C240.544 71.336 238.432 70.936 236.544 70.136C234.688 69.336 233.216 68.184 232.128 66.68C231.04 65.176 230.48 63.4 230.448 61.352H237.648C237.744 62.728 238.224 63.816 239.088 64.616C239.984 65.416 241.2 65.816 242.736 65.816C244.304 65.816 245.536 65.448 246.432 64.712C247.328 63.944 247.776 62.952 247.776 61.736C247.776 60.744 247.472 59.928 246.864 59.288C246.256 58.648 245.488 58.152 244.56 57.8C243.664 57.416 242.416 57 240.816 56.552C238.64 55.912 236.864 55.288 235.488 54.68C234.144 54.04 232.976 53.096 231.984 51.848C231.024 50.568 230.544 48.872 230.544 46.76C230.544 44.776 231.04 43.048 232.032 41.576C233.024 40.104 234.416 38.984 236.208 38.216C238 37.416 240.048 37.016 242.352 37.016C245.808 37.016 248.608 37.864 250.752 39.56C252.928 41.224 254.128 43.56 254.352 46.568H246.96C246.896 45.416 246.4 44.472 245.472 43.736C244.576 42.968 243.376 42.584 241.872 42.584C240.56 42.584 239.504 42.92 238.704 43.592C237.936 44.264 237.552 45.24 237.552 46.52C237.552 47.416 237.84 48.168 238.416 48.776C239.024 49.352 239.76 49.832 240.624 50.216C241.52 50.568 242.768 50.984 244.368 51.464C246.544 52.104 248.32 52.744 249.696 53.384C251.072 54.024 252.256 54.984 253.248 56.264C254.24 57.544 254.736 59.224 254.736 61.304C254.736 63.096 254.272 64.76 253.344 66.296C252.416 67.832 251.056 69.064 249.264 69.992C247.472 70.888 245.344 71.336 242.88 71.336ZM284.322 57.128C284.322 58.088 284.258 58.952 284.13 59.72H264.69C264.85 61.64 265.522 63.144 266.706 64.232C267.89 65.32 269.346 65.864 271.074 65.864C273.57 65.864 275.346 64.792 276.402 62.648H283.65C282.882 65.208 281.41 67.32 279.234 68.984C277.058 70.616 274.386 71.432 271.218 71.432C268.658 71.432 266.354 70.872 264.306 69.752C262.29 68.6 260.706 66.984 259.554 64.904C258.434 62.824 257.874 60.424 257.874 57.704C257.874 54.952 258.434 52.536 259.554 50.456C260.674 48.376 262.242 46.776 264.258 45.656C266.274 44.536 268.594 43.976 271.218 43.976C273.746 43.976 276.002 44.52 277.986 45.608C280.002 46.696 281.554 48.248 282.642 50.264C283.762 52.248 284.322 54.536 284.322 57.128ZM277.362 55.208C277.33 53.48 276.706 52.104 275.49 51.08C274.274 50.024 272.786 49.496 271.026 49.496C269.362 49.496 267.954 50.008 266.802 51.032C265.682 52.024 264.994 53.416 264.738 55.208H277.362ZM312.987 57.128C312.987 58.088 312.923 58.952 312.795 59.72H293.355C293.515 61.64 294.187 63.144 295.371 64.232C296.555 65.32 298.011 65.864 299.739 65.864C302.235 65.864 304.011 64.792 305.067 62.648H312.315C311.547 65.208 310.075 67.32 307.899 68.984C305.723 70.616 303.051 71.432 299.883 71.432C297.323 71.432 295.019 70.872 292.971 69.752C290.955 68.6 289.371 66.984 288.219 64.904C287.099 62.824 286.539 60.424 286.539 57.704C286.539 54.952 287.099 52.536 288.219 50.456C289.339 48.376 290.907 46.776 292.923 45.656C294.939 44.536 297.259 43.976 299.883 43.976C302.411 43.976 304.667 44.52 306.651 45.608C308.667 46.696 310.219 48.248 311.307 50.264C312.427 52.248 312.987 54.536 312.987 57.128ZM306.027 55.208C305.995 53.48 305.371 52.104 304.155 51.08C302.939 50.024 301.451 49.496 299.691 49.496C298.027 49.496 296.619 50.008 295.467 51.032C294.347 52.024 293.659 53.416 293.403 55.208H306.027ZM347.954 64.616H334.61L332.402 71H325.346L337.394 37.448H345.218L357.266 71H350.162L347.954 64.616ZM346.13 59.24L341.282 45.224L336.434 59.24H346.13ZM375.785 44.024C377.801 44.024 379.593 44.472 381.161 45.368C382.729 46.232 383.945 47.528 384.809 49.256C385.705 50.952 386.153 53 386.153 55.4V71H379.433V56.312C379.433 54.2 378.905 52.584 377.849 51.464C376.793 50.312 375.353 49.736 373.529 49.736C371.673 49.736 370.201 50.312 369.113 51.464C368.057 52.584 367.529 54.2 367.529 56.312V71H360.809V35.48H367.529V47.72C368.393 46.568 369.545 45.672 370.985 45.032C372.425 44.36 374.025 44.024 375.785 44.024ZM416.303 57.128C416.303 58.088 416.239 58.952 416.111 59.72H396.671C396.831 61.64 397.503 63.144 398.687 64.232C399.871 65.32 401.327 65.864 403.055 65.864C405.551 65.864 407.327 64.792 408.383 62.648H415.631C414.863 65.208 413.391 67.32 411.215 68.984C409.039 70.616 406.367 71.432 403.199 71.432C400.639 71.432 398.335 70.872 396.287 69.752C394.271 68.6 392.687 66.984 391.535 64.904C390.415 62.824 389.855 60.424 389.855 57.704C389.855 54.952 390.415 52.536 391.535 50.456C392.655 48.376 394.223 46.776 396.239 45.656C398.255 44.536 400.575 43.976 403.199 43.976C405.727 43.976 407.983 44.52 409.967 45.608C411.983 46.696 413.535 48.248 414.623 50.264C415.743 52.248 416.303 54.536 416.303 57.128ZM409.343 55.208C409.311 53.48 408.687 52.104 407.471 51.08C406.255 50.024 404.767 49.496 403.007 49.496C401.343 49.496 399.935 50.008 398.783 51.032C397.663 52.024 396.975 53.416 396.719 55.208H409.343ZM418.52 57.608C418.52 54.92 419.048 52.536 420.104 50.456C421.192 48.376 422.648 46.776 424.472 45.656C426.328 44.536 428.392 43.976 430.664 43.976C432.648 43.976 434.376 44.376 435.848 45.176C437.352 45.976 438.552 46.984 439.448 48.2V44.408H446.216V71H439.448V67.112C438.584 68.36 437.384 69.4 435.848 70.232C434.344 71.032 432.6 71.432 430.616 71.432C428.376 71.432 426.328 70.856 424.472 69.704C422.648 68.552 421.192 66.936 420.104 64.856C419.048 62.744 418.52 60.328 418.52 57.608ZM439.448 57.704C439.448 56.072 439.128 54.68 438.488 53.528C437.848 52.344 436.984 51.448 435.896 50.84C434.808 50.2 433.64 49.88 432.392 49.88C431.144 49.88 429.992 50.184 428.936 50.792C427.88 51.4 427.016 52.296 426.344 53.48C425.704 54.632 425.384 56.008 425.384 57.608C425.384 59.208 425.704 60.616 426.344 61.832C427.016 63.016 427.88 63.928 428.936 64.568C430.024 65.208 431.176 65.528 432.392 65.528C433.64 65.528 434.808 65.224 435.896 64.616C436.984 63.976 437.848 63.08 438.488 61.928C439.128 60.744 439.448 59.336 439.448 57.704ZM450.092 57.608C450.092 54.92 450.62 52.536 451.676 50.456C452.764 48.376 454.236 46.776 456.092 45.656C457.948 44.536 460.012 43.976 462.284 43.976C464.012 43.976 465.66 44.36 467.228 45.128C468.796 45.864 470.044 46.856 470.972 48.104V35.48H477.788V71H470.972V67.064C470.14 68.376 468.972 69.432 467.468 70.232C465.964 71.032 464.22 71.432 462.236 71.432C459.996 71.432 457.948 70.856 456.092 69.704C454.236 68.552 452.764 66.936 451.676 64.856C450.62 62.744 450.092 60.328 450.092 57.608ZM471.02 57.704C471.02 56.072 470.7 54.68 470.06 53.528C469.42 52.344 468.556 51.448 467.468 50.84C466.38 50.2 465.212 49.88 463.964 49.88C462.716 49.88 461.564 50.184 460.508 50.792C459.452 51.4 458.588 52.296 457.916 53.48C457.276 54.632 456.956 56.008 456.956 57.608C456.956 59.208 457.276 60.616 457.916 61.832C458.588 63.016 459.452 63.928 460.508 64.568C461.596 65.208 462.748 65.528 463.964 65.528C465.212 65.528 466.38 65.224 467.468 64.616C468.556 63.976 469.42 63.08 470.06 61.928C470.7 60.744 471.02 59.336 471.02 57.704Z" fill="#282727"/>
<path d="M1.5 92.2842C63.847 88.6808 127.65 88.108 190.608 88.0056C288.068 87.847 384.52 91.1132 481.5 94" stroke="#445AC8" stroke-width="3" stroke-linecap="round"/>
</svg>
