<svg width="397" height="80" viewBox="0 0 397 80" fill="none" xmlns="http://www.w3.org/2000/svg">
<path d="M49.7257 13.496L40.3657 47H32.4457L26.1577 23.144L19.5817 47L11.7097 47.048L2.68568 13.496H9.88568L15.7897 39.512L22.6057 13.496H30.0937L36.5257 39.368L42.4777 13.496H49.7257ZM68.1296 20.024C70.1456 20.024 71.9376 20.472 73.5056 21.368C75.0736 22.232 76.2896 23.528 77.1536 25.256C78.0496 26.952 78.4976 29 78.4976 31.4V47H71.7776V32.312C71.7776 30.2 71.2496 28.584 70.1936 27.464C69.1376 26.312 67.6976 25.736 65.8736 25.736C64.0176 25.736 62.5456 26.312 61.4576 27.464C60.4016 28.584 59.8736 30.2 59.8736 32.312V47H53.1536V11.48H59.8736V23.72C60.7376 22.568 61.8896 21.672 63.3296 21.032C64.7696 20.36 66.3696 20.024 68.1296 20.024ZM82.1999 33.608C82.1999 30.92 82.7279 28.536 83.7839 26.456C84.8719 24.376 86.3279 22.776 88.1519 21.656C90.0079 20.536 92.0719 19.976 94.3439 19.976C96.3279 19.976 98.0559 20.376 99.5279 21.176C101.032 21.976 102.232 22.984 103.128 24.2V20.408H109.896V47H103.128V43.112C102.264 44.36 101.064 45.4 99.5279 46.232C98.0239 47.032 96.2799 47.432 94.2959 47.432C92.0559 47.432 90.0079 46.856 88.1519 45.704C86.3279 44.552 84.8719 42.936 83.7839 40.856C82.7279 38.744 82.1999 36.328 82.1999 33.608ZM103.128 33.704C103.128 32.072 102.808 30.68 102.168 29.528C101.528 28.344 100.664 27.448 99.5759 26.84C98.4879 26.2 97.3199 25.88 96.0719 25.88C94.8239 25.88 93.6719 26.184 92.6159 26.792C91.5599 27.4 90.6959 28.296 90.0239 29.48C89.3839 30.632 89.0639 32.008 89.0639 33.608C89.0639 35.208 89.3839 36.616 90.0239 37.832C90.6959 39.016 91.5599 39.928 92.6159 40.568C93.7039 41.208 94.8559 41.528 96.0719 41.528C97.3199 41.528 98.4879 41.224 99.5759 40.616C100.664 39.976 101.528 39.08 102.168 37.928C102.808 36.744 103.128 35.336 103.128 33.704ZM123.323 25.928V38.792C123.323 39.688 123.531 40.344 123.947 40.76C124.395 41.144 125.131 41.336 126.155 41.336H129.275V47H125.051C119.387 47 116.555 44.248 116.555 38.744V25.928H113.387V20.408H116.555V13.832H123.323V20.408H129.275V25.928H123.323ZM134.493 13.496H141.549L136.365 25.592H131.757L134.493 13.496ZM155.583 47.432C153.407 47.432 151.455 47.048 149.727 46.28C147.999 45.48 146.623 44.408 145.599 43.064C144.607 41.72 144.063 40.232 143.967 38.6H150.735C150.863 39.624 151.359 40.472 152.223 41.144C153.119 41.816 154.223 42.152 155.535 42.152C156.815 42.152 157.807 41.896 158.511 41.384C159.247 40.872 159.615 40.216 159.615 39.416C159.615 38.552 159.167 37.912 158.271 37.496C157.407 37.048 156.015 36.568 154.095 36.056C152.111 35.576 150.479 35.08 149.199 34.568C147.951 34.056 146.863 33.272 145.935 32.216C145.039 31.16 144.591 29.736 144.591 27.944C144.591 26.472 145.007 25.128 145.839 23.912C146.703 22.696 147.919 21.736 149.487 21.032C151.087 20.328 152.959 19.976 155.103 19.976C158.271 19.976 160.799 20.776 162.687 22.376C164.575 23.944 165.615 26.072 165.807 28.76H159.375C159.279 27.704 158.831 26.872 158.031 26.264C157.263 25.624 156.223 25.304 154.911 25.304C153.695 25.304 152.751 25.528 152.079 25.976C151.439 26.424 151.119 27.048 151.119 27.848C151.119 28.744 151.567 29.432 152.463 29.912C153.359 30.36 154.751 30.824 156.639 31.304C158.559 31.784 160.143 32.28 161.391 32.792C162.639 33.304 163.711 34.104 164.607 35.192C165.535 36.248 166.015 37.656 166.047 39.416C166.047 40.952 165.615 42.328 164.751 43.544C163.919 44.76 162.703 45.72 161.103 46.424C159.535 47.096 157.695 47.432 155.583 47.432ZM188.905 25.928V38.792C188.905 39.688 189.113 40.344 189.529 40.76C189.977 41.144 190.713 41.336 191.737 41.336H194.857V47H190.633C184.969 47 182.137 44.248 182.137 38.744V25.928H178.969V20.408H182.137V13.832H188.905V20.408H194.857V25.928H188.905ZM213.706 20.024C215.722 20.024 217.514 20.472 219.082 21.368C220.65 22.232 221.866 23.528 222.73 25.256C223.626 26.952 224.074 29 224.074 31.4V47H217.354V32.312C217.354 30.2 216.826 28.584 215.77 27.464C214.714 26.312 213.274 25.736 211.45 25.736C209.594 25.736 208.122 26.312 207.034 27.464C205.978 28.584 205.45 30.2 205.45 32.312V47H198.73V11.48H205.45V23.72C206.314 22.568 207.466 21.672 208.906 21.032C210.346 20.36 211.946 20.024 213.706 20.024ZM254.225 33.128C254.225 34.088 254.161 34.952 254.033 35.72H234.593C234.753 37.64 235.425 39.144 236.609 40.232C237.793 41.32 239.249 41.864 240.977 41.864C243.473 41.864 245.249 40.792 246.305 38.648H253.553C252.785 41.208 251.313 43.32 249.137 44.984C246.961 46.616 244.289 47.432 241.121 47.432C238.561 47.432 236.257 46.872 234.209 45.752C232.193 44.6 230.609 42.984 229.457 40.904C228.337 38.824 227.777 36.424 227.777 33.704C227.777 30.952 228.337 28.536 229.457 26.456C230.577 24.376 232.145 22.776 234.161 21.656C236.177 20.536 238.497 19.976 241.121 19.976C243.649 19.976 245.905 20.52 247.889 21.608C249.905 22.696 251.457 24.248 252.545 26.264C253.665 28.248 254.225 30.536 254.225 33.128ZM247.265 31.208C247.233 29.48 246.609 28.104 245.393 27.08C244.177 26.024 242.689 25.496 240.929 25.496C239.265 25.496 237.857 26.008 236.705 27.032C235.585 28.024 234.897 29.416 234.641 31.208H247.265ZM266.919 33.608C266.919 30.92 267.447 28.536 268.503 26.456C269.591 24.376 271.063 22.776 272.919 21.656C274.775 20.536 276.839 19.976 279.111 19.976C280.839 19.976 282.487 20.36 284.055 21.128C285.623 21.864 286.871 22.856 287.799 24.104V11.48H294.615V47H287.799V43.064C286.967 44.376 285.799 45.432 284.295 46.232C282.791 47.032 281.047 47.432 279.063 47.432C276.823 47.432 274.775 46.856 272.919 45.704C271.063 44.552 269.591 42.936 268.503 40.856C267.447 38.744 266.919 36.328 266.919 33.608ZM287.847 33.704C287.847 32.072 287.527 30.68 286.887 29.528C286.247 28.344 285.383 27.448 284.295 26.84C283.207 26.2 282.039 25.88 280.791 25.88C279.543 25.88 278.391 26.184 277.335 26.792C276.279 27.4 275.415 28.296 274.743 29.48C274.103 30.632 273.783 32.008 273.783 33.608C273.783 35.208 274.103 36.616 274.743 37.832C275.415 39.016 276.279 39.928 277.335 40.568C278.423 41.208 279.575 41.528 280.791 41.528C282.039 41.528 283.207 41.224 284.295 40.616C285.383 39.976 286.247 39.08 286.887 37.928C287.527 36.744 287.847 35.336 287.847 33.704ZM324.939 33.128C324.939 34.088 324.875 34.952 324.747 35.72H305.307C305.467 37.64 306.139 39.144 307.323 40.232C308.507 41.32 309.963 41.864 311.691 41.864C314.187 41.864 315.963 40.792 317.019 38.648H324.267C323.499 41.208 322.027 43.32 319.851 44.984C317.675 46.616 315.003 47.432 311.835 47.432C309.275 47.432 306.971 46.872 304.923 45.752C302.907 44.6 301.323 42.984 300.171 40.904C299.051 38.824 298.491 36.424 298.491 33.704C298.491 30.952 299.051 28.536 300.171 26.456C301.291 24.376 302.859 22.776 304.875 21.656C306.891 20.536 309.211 19.976 311.835 19.976C314.363 19.976 316.619 20.52 318.603 21.608C320.619 22.696 322.171 24.248 323.259 26.264C324.379 28.248 324.939 30.536 324.939 33.128ZM317.979 31.208C317.947 29.48 317.323 28.104 316.107 27.08C314.891 26.024 313.403 25.496 311.643 25.496C309.979 25.496 308.571 26.008 307.419 27.032C306.299 28.024 305.611 29.416 305.355 31.208H317.979ZM327.156 33.608C327.156 30.92 327.684 28.536 328.74 26.456C329.828 24.376 331.284 22.776 333.108 21.656C334.964 20.536 337.028 19.976 339.3 19.976C341.284 19.976 343.012 20.376 344.484 21.176C345.988 21.976 347.188 22.984 348.084 24.2V20.408H354.852V47H348.084V43.112C347.22 44.36 346.02 45.4 344.484 46.232C342.98 47.032 341.236 47.432 339.252 47.432C337.012 47.432 334.964 46.856 333.108 45.704C331.284 44.552 329.828 42.936 328.74 40.856C327.684 38.744 327.156 36.328 327.156 33.608ZM348.084 33.704C348.084 32.072 347.764 30.68 347.124 29.528C346.484 28.344 345.62 27.448 344.532 26.84C343.444 26.2 342.276 25.88 341.028 25.88C339.78 25.88 338.628 26.184 337.572 26.792C336.516 27.4 335.652 28.296 334.98 29.48C334.34 30.632 334.02 32.008 334.02 33.608C334.02 35.208 334.34 36.616 334.98 37.832C335.652 39.016 336.516 39.928 337.572 40.568C338.66 41.208 339.812 41.528 341.028 41.528C342.276 41.528 343.444 41.224 344.532 40.616C345.62 39.976 346.484 39.08 347.124 37.928C347.764 36.744 348.084 35.336 348.084 33.704ZM367.175 11.48V47H360.455V11.48H367.175ZM382.214 12.344C385.542 12.344 388.214 13.256 390.23 15.08C392.278 16.872 393.302 19.352 393.302 22.52C393.302 25.656 392.294 28.056 390.278 29.72C388.262 31.352 385.59 32.168 382.262 32.168L382.07 35.864H376.166L375.926 27.704H378.086C380.87 27.704 383.014 27.336 384.518 26.6C386.022 25.864 386.774 24.52 386.774 22.568C386.774 21.16 386.358 20.04 385.526 19.208C384.726 18.376 383.622 17.96 382.214 17.96C380.742 17.96 379.59 18.36 378.758 19.16C377.958 19.96 377.558 21.064 377.558 22.472H371.222C371.19 20.52 371.606 18.776 372.47 17.24C373.334 15.704 374.598 14.504 376.262 13.64C377.958 12.776 379.942 12.344 382.214 12.344ZM379.094 47.336C377.878 47.336 376.87 46.968 376.07 46.232C375.302 45.464 374.918 44.52 374.918 43.4C374.918 42.28 375.302 41.352 376.07 40.616C376.87 39.848 377.878 39.464 379.094 39.464C380.278 39.464 381.254 39.848 382.022 40.616C382.79 41.352 383.174 42.28 383.174 43.4C383.174 44.52 382.79 45.464 382.022 46.232C381.254 46.968 380.278 47.336 379.094 47.336Z" fill="#282727"/>
<path d="M1.5 76.2842C52.6765 72.6808 105.048 72.108 156.726 72.0056C236.725 71.847 315.895 75.1132 395.5 78" stroke="#52BB7C" stroke-width="3" stroke-linecap="round"/>
</svg>
